<svg width="800" height="160" viewBox="0 0 800 160" fill="none" xmlns="http://www.w3.org/2000/svg">
<rect width="800" height="160" fill="#1A1A1A"/>
<path d="M295.824 61.1149C294.504 51.9796 296.781 48.2233 303.426 43.8357C303.795 52.5426 303.41 56.912 296.515 61.1149M293.75 73.5559L306.882 59.0414M306.882 59.0414C304.587 67.6681 301.635 72.0161 293.75 74.2471M306.882 59.0414C299.238 61.5432 294.947 65.2062 294.441 73.2831M301.353 94.9822C300.178 86.3545 300.277 81.5141 303.426 72.8648M303.426 72.8648C304.517 79.2197 305.456 85.0398 300.889 91.0538M303.426 72.8648C297.249 77.6752 297.165 83.7559 300.968 91.8373" stroke="white" stroke-linecap="round"/>
<path d="M329 112.261C273.708 92.9087 298.589 55.5856 303.428 43.8357" stroke="white" stroke-linecap="round"/>
<path d="M288.914 99.82L312.413 104.658M288.914 99.82C296.517 94.9818 310.191 103.656 309.5 103.5M288.914 99.82C295.761 105.933 299.281 106.732 308.957 103.967M282.693 83.2319C285.458 90.8348 290.295 93.5995 300.662 94.2907C297.288 92.1313 292.37 89.4524 291.333 88.7613C290.296 88.0701 282.693 83.2319 282.693 83.2319ZM282.693 83.2319C288.914 83.9231 291.678 84.6143 298.59 92.2171M294.442 83.232L281 68.0263M281 68.0263C282.382 74.9379 285.838 79.7761 293.061 81.9917M281 68.0263C286.917 70.7274 292.267 75.37 293.752 81.9917M293.752 71.4821L284.767 52.8206M284.767 52.8206C284.72 61.5473 287.324 66.8076 293.752 72.1733M284.767 52.8206C289.638 57.8639 293.866 61.39 293.5 69.5001M316.559 106.732C311.357 98.2308 309.953 93.8325 308.265 83.9231M302.736 112.952C306.456 109.847 312.448 107.648 325.544 111.301H325.933C314.335 116.622 309.014 118.16 302.736 112.952ZM302.736 112.952L324.853 111.57M314.065 101.894C314.68 94.8918 313.093 89.0954 308.265 83.232C305.134 93.8862 306.231 97.9595 314.065 101.894Z" stroke="white" stroke-linecap="round"/>
<path d="M387.62 47.56V46.6H392.96V47.56H390.8V55H389.78V47.56H387.62ZM396.043 50.92V49.96H401.803V50.92H396.043ZM401.119 46.6H402.139V55H401.119V46.6ZM395.479 46.6H396.499V55H395.479V46.6ZM406.061 55V54.04H410.297V55H406.061ZM406.061 47.56V46.6H410.297V47.56H406.061ZM406.061 50.92V49.96H410.057V50.92H406.061ZM405.497 46.6H406.517V55H405.497V46.6Z" fill="white"/>
<path d="M354.264 67.56V66.996H355.62C355.9 66.996 356.152 66.948 356.376 66.852C356.6 66.756 356.776 66.616 356.904 66.432C357.032 66.248 357.096 66.024 357.096 65.76C357.096 65.36 356.956 65.052 356.676 64.836C356.396 64.612 356.044 64.5 355.62 64.5H354.48V71.1H355.74C356.1 71.1 356.416 71.036 356.688 70.908C356.968 70.78 357.184 70.596 357.336 70.356C357.496 70.116 357.576 69.824 357.576 69.48C357.576 69.224 357.532 68.996 357.444 68.796C357.356 68.596 357.228 68.428 357.06 68.292C356.9 68.156 356.708 68.056 356.484 67.992C356.26 67.92 356.012 67.884 355.74 67.884H354.264V67.32H355.74C356.148 67.32 356.524 67.364 356.868 67.452C357.212 67.54 357.512 67.676 357.768 67.86C358.032 68.036 358.236 68.264 358.38 68.544C358.524 68.824 358.596 69.156 358.596 69.54C358.596 70.092 358.468 70.552 358.212 70.92C357.964 71.28 357.624 71.552 357.192 71.736C356.768 71.912 356.284 72 355.74 72H353.46V63.6H355.62C356.124 63.6 356.56 63.676 356.928 63.828C357.304 63.98 357.596 64.212 357.804 64.524C358.012 64.828 358.116 65.22 358.116 65.7C358.116 66.092 358.012 66.428 357.804 66.708C357.596 66.988 357.304 67.2 356.928 67.344C356.56 67.488 356.124 67.56 355.62 67.56H354.264ZM362.192 67.8C362.192 68.432 362.328 68.996 362.6 69.492C362.88 69.988 363.26 70.38 363.74 70.668C364.22 70.956 364.764 71.1 365.372 71.1C365.988 71.1 366.532 70.956 367.004 70.668C367.484 70.38 367.86 69.988 368.132 69.492C368.412 68.996 368.552 68.432 368.552 67.8C368.552 67.168 368.412 66.604 368.132 66.108C367.86 65.612 367.484 65.22 367.004 64.932C366.532 64.644 365.988 64.5 365.372 64.5C364.764 64.5 364.22 64.644 363.74 64.932C363.26 65.22 362.88 65.612 362.6 66.108C362.328 66.604 362.192 67.168 362.192 67.8ZM361.112 67.8C361.112 67.184 361.216 66.616 361.424 66.096C361.64 65.568 361.94 65.112 362.324 64.728C362.708 64.336 363.16 64.032 363.68 63.816C364.2 63.592 364.764 63.48 365.372 63.48C365.988 63.48 366.552 63.592 367.064 63.816C367.584 64.032 368.036 64.336 368.42 64.728C368.804 65.112 369.1 65.568 369.308 66.096C369.524 66.616 369.632 67.184 369.632 67.8C369.632 68.408 369.524 68.976 369.308 69.504C369.1 70.032 368.804 70.492 368.42 70.884C368.036 71.268 367.584 71.572 367.064 71.796C366.552 72.012 365.988 72.12 365.372 72.12C364.764 72.12 364.2 72.012 363.68 71.796C363.16 71.572 362.708 71.268 362.324 70.884C361.94 70.492 361.64 70.032 361.424 69.504C361.216 68.976 361.112 68.408 361.112 67.8ZM372.452 63.6H373.472V69.24C373.472 69.816 373.628 70.28 373.94 70.632C374.252 70.984 374.708 71.16 375.308 71.16C375.908 71.16 376.364 70.984 376.676 70.632C376.988 70.28 377.144 69.816 377.144 69.24V63.6H378.164V69.24C378.164 69.656 378.096 70.04 377.96 70.392C377.832 70.744 377.64 71.048 377.384 71.304C377.136 71.56 376.836 71.76 376.484 71.904C376.132 72.048 375.74 72.12 375.308 72.12C374.876 72.12 374.484 72.048 374.132 71.904C373.78 71.76 373.476 71.56 373.22 71.304C372.972 71.048 372.78 70.744 372.644 70.392C372.516 70.04 372.452 69.656 372.452 69.24V63.6ZM381.464 63.6H382.484V71.04H385.784V72H381.464V63.6ZM389.474 69.48L389.834 68.52H393.554L393.914 69.48H389.474ZM391.67 65.496L390.254 68.832L390.158 69.048L388.91 72H387.77L391.67 63.18L395.57 72H394.43L393.206 69.12L393.11 68.88L391.67 65.496ZM404.392 63.6H405.412V72.42L399.052 65.748V72H398.032V63.18L404.392 69.852V63.6ZM412.676 68.7V67.74H416.576C416.576 68.324 416.488 68.88 416.312 69.408C416.136 69.928 415.876 70.392 415.532 70.8C415.188 71.208 414.764 71.532 414.26 71.772C413.764 72.004 413.196 72.12 412.556 72.12C411.948 72.12 411.384 72.016 410.864 71.808C410.344 71.592 409.892 71.292 409.508 70.908C409.124 70.516 408.824 70.056 408.608 69.528C408.4 69 408.296 68.424 408.296 67.8C408.296 67.176 408.4 66.6 408.608 66.072C408.824 65.544 409.124 65.088 409.508 64.704C409.892 64.312 410.344 64.012 410.864 63.804C411.384 63.588 411.948 63.48 412.556 63.48C413.076 63.48 413.552 63.548 413.984 63.684C414.424 63.82 414.816 64.02 415.16 64.284C415.512 64.548 415.808 64.876 416.048 65.268L415.328 65.928C415.064 65.48 414.696 65.132 414.224 64.884C413.752 64.628 413.196 64.5 412.556 64.5C411.964 64.5 411.428 64.64 410.948 64.92C410.468 65.2 410.084 65.588 409.796 66.084C409.516 66.572 409.376 67.144 409.376 67.8C409.376 68.448 409.516 69.02 409.796 69.516C410.084 70.012 410.468 70.4 410.948 70.68C411.428 70.96 411.964 71.1 412.556 71.1C412.972 71.1 413.344 71.04 413.672 70.92C414.008 70.792 414.296 70.616 414.536 70.392C414.776 70.168 414.972 69.912 415.124 69.624C415.284 69.336 415.4 69.028 415.472 68.7H412.676ZM420.085 72V71.04H424.321V72H420.085ZM420.085 64.56V63.6H424.321V64.56H420.085ZM420.085 67.92V66.96H424.081V67.92H420.085ZM419.521 63.6H420.541V72H419.521V63.6ZM429.059 67.86H430.199L433.199 72H431.939L429.059 67.86ZM427.559 63.6H428.579V72H427.559V63.6ZM428.123 64.5V63.6H429.839C430.383 63.6 430.867 63.704 431.291 63.912C431.723 64.112 432.063 64.4 432.311 64.776C432.567 65.152 432.695 65.6 432.695 66.12C432.695 66.632 432.567 67.08 432.311 67.464C432.063 67.84 431.723 68.132 431.291 68.34C430.867 68.54 430.383 68.64 429.839 68.64H428.123V67.74H429.839C430.199 67.74 430.515 67.676 430.787 67.548C431.067 67.42 431.283 67.236 431.435 66.996C431.595 66.756 431.675 66.464 431.675 66.12C431.675 65.776 431.595 65.484 431.435 65.244C431.283 65.004 431.067 64.82 430.787 64.692C430.515 64.564 430.199 64.5 429.839 64.5H428.123ZM435.713 63.6H436.733V72H435.713V63.6ZM440.659 72V71.04H444.895V72H440.659ZM440.659 64.56V63.6H444.895V64.56H440.659ZM440.659 67.92V66.96H444.655V67.92H440.659ZM440.095 63.6H441.115V72H440.095V63.6Z" fill="white"/>
<path d="M337.116 94.12L337.956 91.88H346.636L347.476 94.12H337.116ZM342.24 84.824L338.936 92.608L338.712 93.112L335.8 100H333.14L342.24 79.42L351.34 100H348.68L345.824 93.28L345.6 92.72L342.24 84.824ZM359.801 86.756L358.345 100H355.965L358.345 79.42L366.185 93.616L374.025 79.42L376.405 100H374.025L372.569 86.756L366.185 98.18L359.801 86.756ZM384.989 94.12L385.829 91.88H394.509L395.349 94.12H384.989ZM390.113 84.824L386.809 92.608L386.585 93.112L383.673 100H381.013L390.113 79.42L399.213 100H396.553L393.697 93.28L393.473 92.72L390.113 84.824ZM419.797 80.4H422.177V100.98L407.337 85.412V100H404.957V79.42L419.797 94.988V80.4ZM430.028 80.4H432.408V100H430.028V80.4ZM435.908 100H431.344V97.62H435.908C437.009 97.62 438.017 97.452 438.932 97.116C439.847 96.7613 440.631 96.2667 441.284 95.632C441.937 94.9787 442.441 94.1947 442.796 93.28C443.151 92.3653 443.328 91.3387 443.328 90.2C443.328 89.0613 443.151 88.0347 442.796 87.12C442.441 86.2053 441.937 85.4307 441.284 84.796C440.631 84.1427 439.847 83.648 438.932 83.312C438.017 82.9573 437.009 82.78 435.908 82.78H431.344V80.4H435.908C437.812 80.4 439.501 80.8107 440.976 81.632C442.451 82.4533 443.608 83.6013 444.448 85.076C445.288 86.532 445.708 88.24 445.708 90.2C445.708 92.16 445.288 93.8773 444.448 95.352C443.608 96.808 442.451 97.9467 440.976 98.768C439.501 99.5893 437.812 100 435.908 100ZM453.735 100V97.76H463.619V100H453.735ZM453.735 82.64V80.4H463.619V82.64H453.735ZM453.735 90.48V88.24H463.059V90.48H453.735ZM452.419 80.4H454.799V100H452.419V80.4Z" fill="white"/>
<path d="M373.143 114.107C372.971 114.107 372.789 114.093 372.595 114.064C372.402 114.043 372.241 114.018 372.112 113.989C371.847 113.939 371.653 113.9 371.532 113.871C371.417 113.835 371.31 113.81 371.209 113.796C371.116 113.352 371.048 112.99 371.005 112.711C370.962 112.424 370.941 112.217 370.941 112.088C370.941 112.045 370.998 112.023 371.113 112.023C371.242 112.023 371.331 112.056 371.381 112.12C371.632 113.151 372.226 113.667 373.165 113.667C373.523 113.667 373.827 113.56 374.078 113.345C374.328 113.13 374.454 112.826 374.454 112.432C374.454 112.303 374.425 112.145 374.368 111.959C374.318 111.773 374.199 111.612 374.013 111.476C373.87 111.368 373.752 111.289 373.659 111.239C373.566 111.182 373.472 111.132 373.379 111.089C373.286 111.039 373.168 110.971 373.025 110.885L372.595 110.627C372.373 110.491 372.151 110.337 371.929 110.165C371.707 109.986 371.521 109.778 371.371 109.542C371.227 109.306 371.156 109.037 371.156 108.736C371.156 108.357 371.252 108.027 371.446 107.748C371.646 107.462 371.904 107.24 372.219 107.082C372.542 106.924 372.889 106.846 373.261 106.846C373.419 106.846 373.566 106.856 373.702 106.878C373.845 106.892 373.963 106.91 374.056 106.932C374.271 106.982 374.421 107.021 374.507 107.05C374.6 107.078 374.726 107.111 374.883 107.146C374.969 107.519 375.012 108.031 375.012 108.683C375.012 108.733 374.976 108.758 374.905 108.758C374.726 108.758 374.633 108.722 374.625 108.65C374.59 108.436 374.511 108.224 374.389 108.017C374.267 107.809 374.103 107.637 373.895 107.501C373.687 107.358 373.44 107.286 373.154 107.286C372.86 107.286 372.631 107.343 372.466 107.458C372.302 107.565 372.183 107.705 372.112 107.877C372.047 108.042 372.015 108.217 372.015 108.403C372.015 108.582 372.058 108.761 372.144 108.94C372.23 109.119 372.355 109.27 372.52 109.392C372.742 109.556 372.964 109.71 373.186 109.854C373.415 109.997 373.652 110.144 373.895 110.294C374.124 110.437 374.353 110.598 374.583 110.777C374.812 110.949 375.001 111.146 375.152 111.368C375.309 111.59 375.388 111.848 375.388 112.142C375.388 112.521 375.284 112.861 375.077 113.162C374.869 113.456 374.593 113.688 374.25 113.86C373.913 114.025 373.544 114.107 373.143 114.107ZM377.482 114.032C377.453 114.004 377.439 113.943 377.439 113.85C377.439 113.764 377.453 113.721 377.482 113.721C377.539 113.721 377.618 113.71 377.718 113.688C377.818 113.667 377.911 113.638 377.997 113.603C378.083 113.567 378.13 113.535 378.137 113.506C378.166 113.406 378.183 113.291 378.191 113.162C378.205 113.033 378.212 112.897 378.212 112.754V110.724C378.212 110.451 378.162 110.258 378.062 110.144C377.99 110.05 377.904 109.993 377.804 109.972C377.704 109.943 377.618 109.929 377.546 109.929C377.474 109.922 377.439 109.911 377.439 109.896C377.439 109.725 377.46 109.635 377.503 109.628C377.883 109.571 378.173 109.524 378.373 109.488C378.574 109.445 378.753 109.406 378.91 109.37L379.039 109.338C379.068 109.331 379.086 109.359 379.093 109.424C379.1 109.488 379.1 109.535 379.093 109.563C379.079 109.707 379.064 109.843 379.05 109.972C379.043 110.101 379.039 110.222 379.039 110.337V112.55C379.039 112.757 379.046 112.94 379.061 113.098C379.075 113.255 379.097 113.391 379.125 113.506C379.139 113.535 379.19 113.567 379.276 113.603C379.362 113.638 379.455 113.667 379.555 113.688C379.655 113.71 379.727 113.721 379.77 113.721C379.791 113.721 379.806 113.764 379.813 113.85C379.82 113.936 379.816 113.996 379.802 114.032L378.653 113.979L377.482 114.032ZM378.545 108.167C378.402 108.167 378.277 108.113 378.169 108.006C378.062 107.898 378.008 107.773 378.008 107.63C378.008 107.479 378.062 107.354 378.169 107.254C378.277 107.146 378.402 107.093 378.545 107.093C378.695 107.093 378.821 107.146 378.921 107.254C379.028 107.354 379.082 107.479 379.082 107.63C379.082 107.773 379.028 107.898 378.921 108.006C378.821 108.113 378.695 108.167 378.545 108.167ZM381.799 114.032C381.77 114.004 381.756 113.943 381.756 113.85C381.756 113.764 381.77 113.721 381.799 113.721C381.856 113.721 381.935 113.71 382.035 113.688C382.135 113.667 382.228 113.638 382.314 113.603C382.4 113.567 382.447 113.535 382.454 113.506C382.483 113.406 382.501 113.291 382.508 113.162C382.522 113.033 382.529 112.897 382.529 112.754V110.724C382.529 110.451 382.479 110.258 382.379 110.144C382.307 110.058 382.221 110 382.121 109.972C382.028 109.943 381.942 109.929 381.863 109.929C381.792 109.922 381.756 109.911 381.756 109.896C381.756 109.725 381.777 109.635 381.82 109.628C382.2 109.571 382.508 109.521 382.744 109.478C382.98 109.427 383.127 109.395 383.184 109.381L383.356 109.338C383.385 109.331 383.403 109.359 383.41 109.424C383.417 109.488 383.417 109.535 383.41 109.563C383.396 109.664 383.385 109.75 383.378 109.821C383.371 109.893 383.367 109.95 383.367 109.993C383.367 110.022 383.374 110.036 383.389 110.036C383.396 110.036 383.406 110.029 383.421 110.015C383.585 109.843 383.807 109.682 384.087 109.531C384.373 109.374 384.645 109.295 384.903 109.295C385.404 109.295 385.755 109.474 385.956 109.832C386.156 110.19 386.257 110.77 386.257 111.572V112.55C386.257 112.757 386.264 112.94 386.278 113.098C386.293 113.255 386.314 113.391 386.343 113.506C386.357 113.535 386.407 113.567 386.493 113.603C386.579 113.638 386.672 113.667 386.772 113.688C386.873 113.71 386.944 113.721 386.987 113.721C387.009 113.721 387.023 113.764 387.03 113.85C387.037 113.936 387.034 113.996 387.019 114.032L385.87 113.979L384.742 114.032C384.713 114.004 384.699 113.943 384.699 113.85C384.699 113.764 384.713 113.721 384.742 113.721C384.799 113.721 384.875 113.71 384.968 113.688C385.061 113.667 385.147 113.638 385.225 113.603C385.304 113.567 385.347 113.535 385.354 113.506C385.383 113.406 385.401 113.291 385.408 113.162C385.422 113.033 385.43 112.897 385.43 112.754V111.68C385.43 111.014 385.344 110.559 385.172 110.315C385 110.072 384.721 109.95 384.334 109.95C384.183 109.95 384.033 109.993 383.883 110.079C383.732 110.158 383.607 110.251 383.507 110.358C383.406 110.466 383.356 110.566 383.356 110.659V112.55C383.356 112.757 383.363 112.94 383.378 113.098C383.392 113.255 383.414 113.391 383.442 113.506C383.457 113.535 383.507 113.567 383.593 113.603C383.679 113.638 383.772 113.667 383.872 113.688C383.972 113.71 384.044 113.721 384.087 113.721C384.108 113.721 384.123 113.764 384.13 113.85C384.137 113.936 384.133 113.996 384.119 114.032L382.97 113.979L381.799 114.032ZM391.165 114.064C390.771 114.064 390.409 113.961 390.08 113.753C389.75 113.545 389.485 113.27 389.285 112.926C389.091 112.575 388.995 112.185 388.995 111.755C388.995 111.311 389.073 110.906 389.231 110.541C389.396 110.169 389.632 109.871 389.94 109.649C390.255 109.427 390.635 109.316 391.079 109.316C391.866 109.316 392.411 109.499 392.711 109.864C392.711 110.344 392.579 110.584 392.314 110.584C392.192 110.584 392.099 110.559 392.035 110.509C391.97 110.451 391.888 110.351 391.788 110.208C391.566 109.879 391.301 109.714 390.993 109.714C390.699 109.714 390.431 109.854 390.187 110.133C389.951 110.412 389.833 110.827 389.833 111.379C389.833 111.952 389.972 112.428 390.252 112.808C390.538 113.187 390.932 113.377 391.433 113.377C391.734 113.377 391.985 113.334 392.185 113.248C392.393 113.155 392.543 113.073 392.636 113.001L392.711 112.947C392.754 112.947 392.776 112.994 392.776 113.087C392.776 113.137 392.754 113.201 392.711 113.28C392.568 113.481 392.357 113.663 392.078 113.828C391.798 113.986 391.494 114.064 391.165 114.064ZM396.835 114.064C396.441 114.064 396.08 113.961 395.75 113.753C395.421 113.545 395.156 113.27 394.955 112.926C394.762 112.575 394.665 112.185 394.665 111.755C394.665 111.254 394.758 110.82 394.945 110.455C395.131 110.09 395.385 109.811 395.707 109.617C396.03 109.417 396.391 109.316 396.792 109.316C397.122 109.316 397.412 109.381 397.662 109.51C397.913 109.632 398.106 109.789 398.242 109.982C398.371 110.183 398.464 110.387 398.522 110.595C398.586 110.795 398.618 110.996 398.618 111.196C398.618 111.34 398.597 111.429 398.554 111.465C398.511 111.493 398.429 111.508 398.307 111.508H395.6C395.543 111.508 395.514 111.526 395.514 111.562C395.514 111.862 395.575 112.152 395.697 112.432C395.818 112.704 395.997 112.929 396.234 113.108C396.47 113.287 396.76 113.377 397.104 113.377C397.405 113.377 397.655 113.334 397.856 113.248C398.063 113.155 398.214 113.073 398.307 113.001L398.382 112.947C398.425 112.947 398.447 112.994 398.447 113.087C398.447 113.137 398.425 113.201 398.382 113.28C398.239 113.481 398.028 113.663 397.748 113.828C397.469 113.986 397.165 114.064 396.835 114.064ZM395.6 111.057H397.695C397.73 111.057 397.748 111.021 397.748 110.949C397.748 110.792 397.705 110.62 397.619 110.434C397.541 110.24 397.419 110.072 397.254 109.929C397.089 109.785 396.882 109.714 396.631 109.714C396.402 109.714 396.205 109.793 396.04 109.95C395.876 110.101 395.75 110.276 395.664 110.477C395.578 110.67 395.535 110.838 395.535 110.981C395.535 111.032 395.557 111.057 395.6 111.057ZM404.846 114.032C404.818 114.004 404.803 113.943 404.803 113.85C404.803 113.764 404.818 113.721 404.846 113.721C404.911 113.721 405 113.71 405.115 113.688C405.229 113.667 405.337 113.638 405.437 113.603C405.537 113.567 405.591 113.535 405.598 113.506C405.641 113.334 405.663 113.13 405.663 112.894V109.026C405.663 108.804 405.656 108.632 405.641 108.511C405.627 108.382 405.584 108.317 405.512 108.317C405.462 108.317 405.365 108.357 405.222 108.436C405.086 108.514 404.954 108.593 404.825 108.672C404.782 108.65 404.739 108.611 404.696 108.554C404.653 108.489 404.631 108.439 404.631 108.403C404.631 108.375 404.639 108.353 404.653 108.339C405.863 107.515 406.483 107.104 406.511 107.104H406.533C406.59 107.104 406.633 107.172 406.662 107.308C406.59 107.53 406.554 107.866 406.554 108.317V112.55C406.554 112.757 406.561 112.94 406.576 113.098C406.59 113.255 406.612 113.391 406.64 113.506C406.655 113.535 406.708 113.567 406.801 113.603C406.902 113.638 407.009 113.667 407.124 113.688C407.238 113.71 407.317 113.721 407.36 113.721C407.389 113.721 407.403 113.785 407.403 113.914C407.403 113.986 407.399 114.025 407.392 114.032C407.034 114.018 406.748 114.007 406.533 114C406.318 113.986 406.171 113.979 406.092 113.979C406.035 113.979 405.903 113.986 405.695 114C405.487 114.007 405.204 114.018 404.846 114.032ZM410.495 114.064C410.452 114.064 410.402 114.021 410.345 113.936C410.288 113.85 410.259 113.789 410.259 113.753C410.631 113.61 410.993 113.406 411.344 113.141C411.702 112.868 412.017 112.546 412.289 112.174C412.569 111.794 412.773 111.368 412.902 110.896C412.923 110.824 412.92 110.788 412.891 110.788C412.834 110.86 412.733 110.928 412.59 110.992C412.447 111.049 412.293 111.096 412.128 111.132C411.971 111.168 411.827 111.186 411.698 111.186C411.355 111.186 411.043 111.096 410.764 110.917C410.485 110.738 410.263 110.502 410.098 110.208C409.933 109.907 409.851 109.578 409.851 109.22C409.851 108.819 409.951 108.457 410.152 108.135C410.359 107.805 410.628 107.544 410.957 107.351C411.294 107.15 411.656 107.05 412.042 107.05C412.436 107.05 412.783 107.157 413.084 107.372C413.392 107.587 413.636 107.87 413.815 108.221C413.994 108.564 414.083 108.94 414.083 109.349C414.083 109.907 413.969 110.451 413.74 110.981C413.51 111.511 413.217 111.977 412.859 112.378C412.493 112.772 412.107 113.116 411.698 113.409C411.297 113.703 410.896 113.921 410.495 114.064ZM412.107 110.659C412.443 110.659 412.698 110.545 412.869 110.315C413.048 110.086 413.142 109.782 413.149 109.402C413.156 109.051 413.106 108.729 412.998 108.436C412.891 108.142 412.74 107.909 412.547 107.737C412.354 107.558 412.128 107.469 411.87 107.469C411.562 107.469 411.297 107.612 411.075 107.898C410.853 108.185 410.742 108.561 410.742 109.026C410.742 109.492 410.861 109.882 411.097 110.197C411.333 110.505 411.67 110.659 412.107 110.659ZM418.454 114.097C417.86 114.097 417.376 113.936 417.004 113.613C416.639 113.291 416.456 112.868 416.456 112.346C416.456 112.009 416.581 111.694 416.832 111.4C417.083 111.1 417.423 110.827 417.852 110.584C417.888 110.562 417.888 110.541 417.852 110.52C417.573 110.355 417.319 110.126 417.09 109.832C416.868 109.531 416.757 109.202 416.757 108.844C416.757 108.536 416.839 108.249 417.004 107.984C417.169 107.719 417.387 107.505 417.659 107.34C417.931 107.175 418.225 107.093 418.54 107.093C418.869 107.093 419.167 107.161 419.432 107.297C419.697 107.433 419.908 107.623 420.065 107.866C420.223 108.11 420.302 108.396 420.302 108.726C420.302 109.277 419.901 109.803 419.099 110.305C419.07 110.326 419.07 110.348 419.099 110.369C419.335 110.505 419.56 110.67 419.775 110.863C419.99 111.049 420.166 111.257 420.302 111.486C420.438 111.708 420.506 111.948 420.506 112.206C420.506 112.557 420.409 112.876 420.216 113.162C420.03 113.449 419.779 113.678 419.464 113.85C419.156 114.014 418.819 114.097 418.454 114.097ZM418.733 110.111C418.748 110.111 418.769 110.104 418.798 110.09C419.285 109.768 419.528 109.331 419.528 108.779C419.528 108.55 419.482 108.339 419.389 108.146C419.303 107.945 419.181 107.784 419.023 107.662C418.866 107.533 418.683 107.469 418.476 107.469C418.211 107.469 417.989 107.583 417.81 107.812C417.638 108.042 417.552 108.342 417.552 108.715C417.552 109.202 417.924 109.66 418.669 110.09C418.69 110.104 418.712 110.111 418.733 110.111ZM418.476 113.71C418.834 113.71 419.116 113.603 419.324 113.388C419.532 113.173 419.636 112.883 419.636 112.518C419.636 112.267 419.564 112.041 419.421 111.841C419.285 111.633 419.131 111.458 418.959 111.314C418.787 111.171 418.651 111.067 418.551 111.003C418.415 110.91 418.322 110.856 418.271 110.842C418.228 110.82 418.2 110.81 418.185 110.81C418.171 110.81 418.15 110.82 418.121 110.842C418.092 110.856 418.06 110.878 418.024 110.906C417.767 111.092 417.58 111.293 417.466 111.508C417.358 111.715 417.305 111.984 417.305 112.313C417.305 112.729 417.423 113.065 417.659 113.323C417.895 113.581 418.168 113.71 418.476 113.71ZM424.565 114.054C423.928 114.054 423.448 113.946 423.126 113.731C423.054 113.681 423.018 113.577 423.018 113.42C423.018 113.083 423.151 112.915 423.416 112.915C423.523 112.915 423.62 112.969 423.706 113.076C423.792 113.176 423.906 113.284 424.049 113.398C424.257 113.549 424.544 113.624 424.909 113.624C425.21 113.624 425.478 113.499 425.714 113.248C425.958 112.99 426.08 112.596 426.08 112.066C426.08 111.622 425.951 111.257 425.693 110.971C425.442 110.677 425.048 110.53 424.511 110.53C424.146 110.53 423.835 110.57 423.577 110.648C423.548 110.634 423.516 110.616 423.48 110.595C423.451 110.566 423.419 110.534 423.383 110.498L423.899 107.308C424.601 107.286 425.163 107.265 425.586 107.243C426.008 107.215 426.287 107.186 426.423 107.157C426.438 107.186 426.449 107.222 426.456 107.265C426.47 107.3 426.477 107.358 426.477 107.437C426.477 107.58 426.456 107.759 426.413 107.974C426.219 108.031 425.815 108.07 425.199 108.092L424.264 108.135C424.221 108.149 424.196 108.178 424.189 108.221C424.153 108.421 424.107 108.665 424.049 108.951C423.999 109.23 423.942 109.56 423.878 109.939C424.107 109.846 424.443 109.8 424.887 109.8C425.274 109.8 425.625 109.893 425.94 110.079C426.262 110.258 426.52 110.498 426.713 110.799C426.907 111.1 427.004 111.429 427.004 111.787C427.004 112.224 426.896 112.614 426.681 112.958C426.474 113.302 426.187 113.57 425.822 113.764C425.457 113.957 425.038 114.054 424.565 114.054Z" fill="white"/>
<path d="M503.177 61.1149C504.497 51.9796 502.22 48.2233 495.575 43.8357C495.206 52.5426 495.59 56.912 502.486 61.1149M505.251 73.5559L492.119 59.0414M492.119 59.0414C494.414 67.6681 497.366 72.0161 505.251 74.2471M492.119 59.0414C499.763 61.5432 504.054 65.2062 504.56 73.2831M497.648 94.9822C498.823 86.3545 498.724 81.5141 495.575 72.8648M495.575 72.8648C494.484 79.2197 493.545 85.0398 498.112 91.0538M495.575 72.8648C501.752 77.6752 501.835 83.7559 498.033 91.8373" stroke="white" stroke-linecap="round"/>
<path d="M470 112.261C525.293 92.9087 500.412 55.5856 495.573 43.8357" stroke="white" stroke-linecap="round"/>
<path d="M510.087 99.82L486.588 104.658M510.087 99.82C502.484 94.9818 488.809 103.656 489.5 103.5M510.087 99.82C503.24 105.933 499.72 106.732 490.044 103.967M516.308 83.2319C513.543 90.8348 508.706 93.5995 498.339 94.2907C501.713 92.1313 506.631 89.4524 507.668 88.7613C508.705 88.0701 516.308 83.2319 516.308 83.2319ZM516.308 83.2319C510.087 83.9231 507.323 84.6143 500.411 92.2171M504.559 83.232L518.001 68.0263M518.001 68.0263C516.619 74.9379 513.163 79.7761 505.94 81.9917M518.001 68.0263C512.084 70.7274 506.985 74.8784 505.5 81.5001M505.249 71.4821L514.234 52.8206M514.234 52.8206C514.281 61.5473 511.677 66.8076 505.249 72.1733M514.234 52.8206C509.363 57.8639 505.134 61.39 505.5 69.5001M482.442 106.732C487.644 98.2308 489.048 93.8325 490.736 83.9231M496.265 112.952C492.545 109.847 486.553 107.648 473.457 111.301H473.068C484.666 116.622 489.987 118.16 496.265 112.952ZM496.265 112.952L474.148 111.57M484.936 101.894C484.321 94.8918 485.908 89.0954 490.736 83.232C493.867 93.8862 492.77 97.9595 484.936 101.894Z" stroke="white" stroke-linecap="round"/>
</svg>
