<svg width="1080" height="197" viewBox="0 0 1080 197" fill="none" xmlns="http://www.w3.org/2000/svg">
<rect x="0.5" y="0.5" width="1078.94" height="195.942" stroke="#E0E0E0"/>
<rect width="538.971" height="194.942" transform="translate(1 1)" fill="white"/>
<path d="M162.944 99.4434L179.442 115.943" stroke="#436FC0" stroke-width="2"/>
<path d="M177.527 98.4717V82.9161" stroke="#436FC0" stroke-width="2"/>
<path d="M164.044 110.142C163.654 110.532 163.654 111.165 164.044 111.556C164.435 111.946 165.068 111.946 165.459 111.556L164.752 110.849L164.044 110.142ZM177.833 99.1814L178.54 98.4742L177.126 97.06L176.419 97.7671L177.126 98.4742L177.833 99.1814ZM164.752 110.849L165.459 111.556L177.833 99.1814L177.126 98.4742L176.419 97.7671L164.044 110.142L164.752 110.849Z" fill="#436FC0"/>
<path d="M179.472 82.916L195.971 99.4152" stroke="#1B2C4D" stroke-width="2"/>
<path d="M157.229 101.27C159.312 103.353 162.688 103.353 164.771 101.27C166.854 99.1875 166.854 95.8106 164.771 93.7277C162.688 91.6449 159.312 91.6449 157.229 93.7277C155.146 95.8106 155.146 99.1875 157.229 101.27ZM173.728 84.7711C175.81 86.8539 179.187 86.8539 181.27 84.7711C183.353 82.6883 183.353 79.3114 181.27 77.2285C179.187 75.1457 175.81 75.1457 173.728 77.2285C171.645 79.3114 171.645 82.6883 173.728 84.7711ZM161 97.499L161.707 98.2061L178.206 81.7069L177.499 80.9998L176.792 80.2927L160.293 96.7919L161 97.499Z" fill="#436FC0"/>
<path d="M173.756 117.799C175.839 119.881 179.216 119.881 181.298 117.799C183.381 115.716 183.381 112.339 181.298 110.256C179.216 108.173 175.839 108.173 173.756 110.256C171.673 112.339 171.673 115.716 173.756 117.799ZM190.255 101.299C192.338 103.382 195.714 103.382 197.797 101.299C199.88 99.2166 199.88 95.8397 197.797 93.7569C195.714 91.674 192.338 91.674 190.255 93.7569C188.172 95.8397 188.172 99.2166 190.255 101.299ZM177.527 114.027L178.234 114.734L194.733 98.2353L194.026 97.5282L193.319 96.821L176.82 113.32L177.527 114.027Z" fill="#1B2C4D"/>
<path d="M223.488 99.0918C223.124 99.0827 222.668 99.0781 222.121 99.0781C221.574 99.069 220.977 99.0599 220.33 99.0508C219.692 99.0417 219.022 99.0371 218.32 99.0371C217.627 99.028 216.948 99.0234 216.283 99.0234C215.618 99.0143 214.984 99.0143 214.383 99.0234C213.781 99.0326 213.257 99.0462 212.81 99.0645V103.125C212.81 103.9 212.82 104.579 212.838 105.162C212.865 105.736 212.892 106.233 212.92 106.652C212.956 107.072 212.997 107.423 213.043 107.705C213.098 107.988 213.152 108.225 213.207 108.416V108.471H209.926V108.416C209.98 108.225 210.03 107.988 210.076 107.705C210.131 107.423 210.176 107.072 210.213 106.652C210.249 106.233 210.277 105.736 210.295 105.162C210.313 104.579 210.322 103.9 210.322 103.125V94.2246C210.322 93.4499 210.313 92.7754 210.295 92.2012C210.277 91.6178 210.249 91.1165 210.213 90.6973C210.176 90.2689 210.131 89.9134 210.076 89.6309C210.03 89.3483 209.98 89.1113 209.926 88.9199V88.8652H213.207V88.9199C213.152 89.1113 213.098 89.3483 213.043 89.6309C212.997 89.9134 212.956 90.2689 212.92 90.6973C212.892 91.1165 212.865 91.6178 212.838 92.2012C212.82 92.7754 212.81 93.4499 212.81 94.2246V97.7246C213.284 97.7428 213.822 97.7565 214.424 97.7656C215.025 97.7656 215.654 97.7656 216.31 97.7656C216.967 97.7565 217.632 97.7474 218.306 97.7383C218.99 97.7292 219.646 97.7201 220.275 97.7109C220.913 97.6927 221.506 97.6745 222.053 97.6562C222.609 97.638 223.087 97.6198 223.488 97.6016V94.2246C223.488 93.4499 223.474 92.7754 223.447 92.2012C223.429 91.6178 223.402 91.1165 223.365 90.6973C223.338 90.2689 223.297 89.9134 223.242 89.6309C223.196 89.3483 223.146 89.1113 223.092 88.9199V88.8652H226.373V88.9199C226.318 89.1113 226.264 89.3483 226.209 89.6309C226.163 89.9134 226.122 90.2689 226.086 90.6973C226.049 91.1165 226.022 91.6178 226.004 92.2012C225.986 92.7754 225.976 93.4499 225.976 94.2246V103.125C225.976 103.9 225.986 104.579 226.004 105.162C226.022 105.736 226.049 106.233 226.086 106.652C226.122 107.072 226.163 107.423 226.209 107.705C226.264 107.988 226.318 108.225 226.373 108.416V108.471H223.092V108.416C223.146 108.225 223.196 107.988 223.242 107.705C223.297 107.423 223.338 107.072 223.365 106.652C223.402 106.233 223.429 105.736 223.447 105.162C223.474 104.579 223.488 103.9 223.488 103.125V99.0918ZM230.529 99.8164C230.529 99.0417 230.515 98.3672 230.488 97.793C230.47 97.2096 230.443 96.7083 230.406 96.2891C230.379 95.8698 230.338 95.5189 230.283 95.2363C230.237 94.9538 230.187 94.7168 230.133 94.5254V94.4707H233.291V94.5254C233.236 94.7168 233.186 94.9538 233.14 95.2363C233.095 95.5189 233.054 95.8698 233.017 96.2891C232.981 96.7083 232.954 97.2096 232.935 97.793C232.917 98.3672 232.908 99.0417 232.908 99.8164V103.125C232.908 103.9 232.917 104.579 232.935 105.162C232.954 105.736 232.981 106.233 233.017 106.652C233.054 107.072 233.095 107.423 233.14 107.705C233.186 107.988 233.236 108.225 233.291 108.416V108.471H230.133V108.416C230.187 108.225 230.237 107.988 230.283 107.705C230.338 107.423 230.379 107.072 230.406 106.652C230.443 106.233 230.47 105.736 230.488 105.162C230.515 104.579 230.529 103.9 230.529 103.125V99.8164ZM230.242 90.3281C230.242 90.1276 230.278 89.9408 230.351 89.7676C230.433 89.5853 230.538 89.4303 230.666 89.3027C230.793 89.166 230.944 89.0612 231.117 88.9883C231.299 88.9062 231.495 88.8652 231.705 88.8652C231.915 88.8652 232.106 88.9062 232.279 88.9883C232.461 89.0612 232.616 89.166 232.744 89.3027C232.881 89.4303 232.986 89.5853 233.058 89.7676C233.14 89.9408 233.181 90.1276 233.181 90.3281C233.181 90.7474 233.04 91.0983 232.758 91.3809C232.475 91.6634 232.124 91.8047 231.705 91.8047C231.495 91.8047 231.299 91.7682 231.117 91.6953C230.944 91.6133 230.793 91.5085 230.666 91.3809C230.538 91.2441 230.433 91.0892 230.351 90.916C230.278 90.7337 230.242 90.5378 230.242 90.3281ZM237.201 93.377C237.201 92.6022 237.187 91.9277 237.16 91.3535C237.142 90.7702 237.114 90.2689 237.078 89.8496C237.051 89.4303 237.01 89.0794 236.955 88.7969C236.909 88.5143 236.859 88.2773 236.805 88.0859V88.0312H239.963V88.0859C239.908 88.2773 239.858 88.5143 239.812 88.7969C239.767 89.0794 239.726 89.4303 239.689 89.8496C239.653 90.2689 239.625 90.7702 239.607 91.3535C239.589 91.9277 239.58 92.6022 239.58 93.377V100.186L244.051 96.1797C244.834 95.4961 245.226 94.9264 245.226 94.4707H248.398V94.5254C248.161 94.5983 247.933 94.694 247.715 94.8125C247.505 94.9219 247.291 95.054 247.072 95.209C246.862 95.3639 246.639 95.5417 246.402 95.7422C246.174 95.9336 245.924 96.1523 245.65 96.3984L241.644 100.049L247.14 106.543C247.305 106.743 247.482 106.949 247.674 107.158C247.865 107.359 248.056 107.546 248.248 107.719C248.439 107.892 248.626 108.042 248.808 108.17C248.991 108.298 249.159 108.38 249.314 108.416V108.471H245.349C245.349 108.234 245.286 107.988 245.158 107.732C245.04 107.477 244.821 107.154 244.502 106.762L239.58 100.91V103.125C239.58 103.9 239.589 104.579 239.607 105.162C239.625 105.736 239.653 106.233 239.689 106.652C239.726 107.072 239.767 107.423 239.812 107.705C239.858 107.988 239.908 108.225 239.963 108.416V108.471H236.805V108.416C236.859 108.225 236.909 107.988 236.955 107.705C237.01 107.423 237.051 107.072 237.078 106.652C237.114 106.233 237.142 105.736 237.16 105.162C237.187 104.579 237.201 103.9 237.201 103.125V93.377ZM249.396 101.443C249.396 100.413 249.588 99.4609 249.971 98.5859C250.353 97.7018 250.877 96.9362 251.543 96.2891C252.217 95.6419 253.01 95.1361 253.922 94.7715C254.833 94.4069 255.813 94.2246 256.861 94.2246C257.891 94.2246 258.857 94.3978 259.76 94.7441C260.671 95.0814 261.464 95.5645 262.139 96.1934C262.813 96.8223 263.342 97.5879 263.724 98.4902C264.116 99.3926 264.312 100.404 264.312 101.525C264.312 102.464 264.148 103.367 263.82 104.232C263.492 105.098 263.009 105.864 262.371 106.529C261.733 107.195 260.949 107.728 260.019 108.129C259.099 108.521 258.037 108.717 256.834 108.717C255.813 108.717 254.851 108.548 253.949 108.211C253.047 107.874 252.258 107.391 251.584 106.762C250.909 106.133 250.376 105.372 249.984 104.479C249.592 103.576 249.396 102.564 249.396 101.443ZM257.148 107.719C257.795 107.719 258.388 107.591 258.926 107.336C259.473 107.081 259.942 106.712 260.334 106.229C260.726 105.745 261.031 105.158 261.25 104.465C261.469 103.772 261.578 102.988 261.578 102.113C261.578 101.129 261.473 100.217 261.264 99.3789C261.054 98.5312 260.739 97.8021 260.32 97.1914C259.91 96.5716 259.39 96.0885 258.762 95.7422C258.133 95.3958 257.399 95.2227 256.56 95.2227C255.913 95.2227 255.321 95.3503 254.783 95.6055C254.245 95.8516 253.776 96.2116 253.375 96.6855C252.983 97.1595 252.678 97.7428 252.459 98.4355C252.24 99.1191 252.131 99.8984 252.131 100.773C252.131 101.758 252.236 102.674 252.445 103.521C252.664 104.369 252.983 105.107 253.402 105.736C253.821 106.356 254.341 106.844 254.961 107.199C255.59 107.546 256.319 107.719 257.148 107.719ZM267.389 99.8164C267.389 99.0417 267.375 98.3672 267.348 97.793C267.329 97.2096 267.302 96.7083 267.265 96.2891C267.238 95.8698 267.197 95.5189 267.142 95.2363C267.097 94.9538 267.047 94.7168 266.992 94.5254V94.4707H270.15V94.5254C270.077 94.735 270.014 94.9902 269.959 95.291C269.913 95.5918 269.877 95.9792 269.849 96.4531C270.187 96.1706 270.538 95.8926 270.902 95.6191C271.267 95.3457 271.64 95.1042 272.023 94.8945C272.406 94.6849 272.793 94.5163 273.185 94.3887C273.586 94.2611 273.987 94.1973 274.389 94.1973C274.635 94.1973 274.849 94.2109 275.031 94.2383C275.213 94.2565 275.377 94.2884 275.523 94.334C275.669 94.3704 275.801 94.416 275.92 94.4707C276.038 94.5163 276.152 94.5618 276.262 94.6074L275.592 97.2188L275.359 97.1641C275.25 96.763 275.045 96.444 274.744 96.207C274.443 95.9609 274.033 95.8379 273.514 95.8379C273.231 95.8379 272.935 95.888 272.625 95.9883C272.315 96.0885 272 96.2298 271.681 96.4121C271.362 96.5853 271.043 96.7904 270.724 97.0273C270.405 97.2552 270.096 97.4967 269.795 97.752C269.777 98.0163 269.767 98.3034 269.767 98.6133C269.767 98.9232 269.767 99.2513 269.767 99.5977V103.125C269.767 103.9 269.777 104.579 269.795 105.162C269.813 105.736 269.84 106.233 269.877 106.652C269.913 107.072 269.954 107.423 270 107.705C270.045 107.988 270.096 108.225 270.15 108.416V108.471H266.992V108.416C267.047 108.225 267.097 107.988 267.142 107.705C267.197 107.423 267.238 107.072 267.265 106.652C267.302 106.233 267.329 105.736 267.348 105.162C267.375 104.579 267.389 103.9 267.389 103.125V99.8164ZM276.713 104.438C276.713 103.717 276.859 103.093 277.15 102.564C277.451 102.036 277.848 101.585 278.34 101.211C278.832 100.837 279.392 100.536 280.021 100.309C280.65 100.072 281.302 99.8893 281.976 99.7617C282.651 99.625 283.316 99.5339 283.973 99.4883C284.629 99.4336 285.23 99.4017 285.777 99.3926V98.6953C285.777 98.0938 285.7 97.5742 285.545 97.1367C285.39 96.6992 285.171 96.3392 284.889 96.0566C284.606 95.765 284.264 95.5508 283.863 95.4141C283.471 95.2682 283.038 95.1953 282.564 95.1953C282.236 95.1953 281.913 95.2227 281.594 95.2773C281.275 95.332 280.942 95.4232 280.596 95.5508C280.258 95.6784 279.898 95.8516 279.515 96.0703C279.142 96.2891 278.736 96.5671 278.299 96.9043L278.162 96.8223L279.092 94.8945C279.392 94.7578 279.689 94.6484 279.98 94.5664C280.272 94.4753 280.568 94.4023 280.869 94.3477C281.17 94.293 281.475 94.2565 281.785 94.2383C282.104 94.2109 282.437 94.1973 282.783 94.1973C283.74 94.1973 284.556 94.3158 285.23 94.5527C285.914 94.7806 286.47 95.0996 286.898 95.5098C287.336 95.9108 287.655 96.3848 287.855 96.9316C288.056 97.4694 288.156 98.0482 288.156 98.668V103.125C288.156 103.9 288.165 104.579 288.183 105.162C288.211 105.736 288.238 106.233 288.265 106.652C288.302 107.072 288.343 107.423 288.389 107.705C288.443 107.988 288.498 108.225 288.553 108.416V108.471H285.531V108.416C285.577 108.27 285.609 108.106 285.627 107.924C285.654 107.742 285.677 107.523 285.695 107.268C285.504 107.432 285.276 107.6 285.012 107.773C284.756 107.947 284.46 108.106 284.123 108.252C283.795 108.389 283.426 108.498 283.015 108.58C282.614 108.671 282.172 108.717 281.689 108.717C280.103 108.717 278.877 108.348 278.012 107.609C277.146 106.862 276.713 105.805 276.713 104.438ZM285.777 100.459C284.948 100.468 284.15 100.518 283.385 100.609C282.619 100.691 281.94 100.869 281.348 101.143C280.764 101.416 280.295 101.808 279.939 102.318C279.593 102.82 279.42 103.49 279.42 104.328C279.42 105.404 279.689 106.224 280.226 106.789C280.764 107.354 281.507 107.637 282.455 107.637C282.892 107.637 283.289 107.577 283.644 107.459C284.009 107.331 284.328 107.176 284.601 106.994C284.884 106.803 285.121 106.598 285.312 106.379C285.504 106.151 285.65 105.932 285.75 105.723C285.768 105.376 285.777 104.993 285.777 104.574C285.777 104.146 285.777 103.663 285.777 103.125V100.459Z" fill="#1B2C4D"/>
<path d="M299.92 90.041C299.902 91.0618 299.883 92.0508 299.865 93.0078C299.856 93.418 299.847 93.8372 299.838 94.2656C299.838 94.694 299.833 95.1178 299.824 95.5371C299.824 95.9473 299.82 96.3438 299.81 96.7266C299.81 97.1003 299.81 97.4329 299.81 97.7246C299.81 98.3353 299.815 99.0736 299.824 99.9395C299.833 100.805 299.842 101.694 299.851 102.605C299.87 103.517 299.892 104.392 299.92 105.23C299.947 106.069 299.979 106.766 300.015 107.322C300.143 107.34 300.312 107.363 300.521 107.391C300.74 107.409 300.968 107.427 301.205 107.445C301.442 107.454 301.674 107.464 301.902 107.473C302.13 107.482 302.321 107.486 302.476 107.486C303.114 107.486 303.766 107.445 304.431 107.363C305.106 107.272 305.753 107.108 306.373 106.871C307.002 106.634 307.59 106.311 308.137 105.9C308.693 105.481 309.176 104.943 309.586 104.287C310.005 103.631 310.333 102.842 310.57 101.922C310.807 100.992 310.926 99.8984 310.926 98.6406C310.926 97.2461 310.757 96.0065 310.42 94.9219C310.083 93.8281 309.586 92.9076 308.93 92.1602C308.282 91.4128 307.476 90.8477 306.51 90.4648C305.553 90.0729 304.45 89.877 303.201 89.877C302.955 89.877 302.677 89.8861 302.367 89.9043C302.057 89.9134 301.747 89.9271 301.437 89.9453C301.137 89.9544 300.849 89.9727 300.576 90C300.312 90.0182 300.093 90.0319 299.92 90.041ZM296.926 88.8105C297.135 88.8197 297.331 88.8288 297.514 88.8379C297.668 88.847 297.828 88.8561 297.992 88.8652C298.156 88.8652 298.288 88.8652 298.389 88.8652C298.562 88.8652 298.849 88.8561 299.25 88.8379C299.66 88.8197 300.125 88.8014 300.644 88.7832C301.164 88.765 301.702 88.7467 302.258 88.7285C302.823 88.7103 303.351 88.7012 303.844 88.7012C305.165 88.7012 306.423 88.8652 307.617 89.1934C308.811 89.5215 309.859 90.0592 310.762 90.8066C311.664 91.554 312.379 92.5339 312.908 93.7461C313.437 94.9583 313.701 96.4486 313.701 98.2168C313.701 99.4837 313.56 100.623 313.277 101.635C313.004 102.646 312.616 103.54 312.115 104.314C311.614 105.089 311.012 105.755 310.31 106.311C309.618 106.857 308.848 107.309 308 107.664C307.161 108.02 306.264 108.279 305.306 108.443C304.349 108.607 303.361 108.689 302.34 108.689C301.975 108.689 301.533 108.676 301.014 108.648C300.503 108.63 299.988 108.607 299.469 108.58C298.949 108.553 298.457 108.525 297.992 108.498C297.536 108.48 297.181 108.471 296.926 108.471V108.416C296.98 108.225 297.03 107.988 297.076 107.705C297.131 107.423 297.176 107.072 297.213 106.652C297.249 106.233 297.277 105.736 297.295 105.162C297.313 104.579 297.322 103.9 297.322 103.125V94.2246C297.322 93.4499 297.313 92.7708 297.295 92.1875C297.277 91.5951 297.249 91.0892 297.213 90.6699C297.176 90.2415 297.131 89.8815 297.076 89.5898C297.03 89.2982 296.98 89.0566 296.926 88.8652V88.8105ZM323.189 108.717C322.178 108.717 321.23 108.557 320.346 108.238C319.461 107.919 318.691 107.454 318.035 106.844C317.379 106.224 316.859 105.463 316.476 104.561C316.103 103.649 315.916 102.61 315.916 101.443C315.916 100.413 316.089 99.4609 316.435 98.5859C316.782 97.7018 317.26 96.9362 317.871 96.2891C318.482 95.6419 319.193 95.1361 320.004 94.7715C320.824 94.4069 321.708 94.2246 322.656 94.2246C323.595 94.2246 324.465 94.3887 325.267 94.7168C326.07 95.0358 326.762 95.5052 327.346 96.125C327.938 96.7357 328.403 97.4967 328.74 98.4082C329.086 99.3105 329.273 100.34 329.301 101.498C328.271 101.48 327.241 101.466 326.211 101.457C325.181 101.448 324.11 101.443 322.998 101.443C322.205 101.443 321.43 101.448 320.674 101.457C319.926 101.466 319.252 101.48 318.65 101.498C318.705 102.446 318.851 103.303 319.088 104.068C319.334 104.834 319.667 105.49 320.086 106.037C320.514 106.575 321.029 106.99 321.631 107.281C322.241 107.573 322.93 107.719 323.695 107.719C324.224 107.719 324.721 107.66 325.185 107.541C325.659 107.413 326.088 107.24 326.471 107.021C326.853 106.803 327.195 106.548 327.496 106.256C327.797 105.955 328.052 105.632 328.262 105.285L328.426 105.367L327.414 107.801C326.922 108.056 326.334 108.275 325.65 108.457C324.967 108.63 324.146 108.717 323.189 108.717ZM321.371 100.377C322.282 100.377 323.194 100.377 324.105 100.377C325.026 100.368 325.86 100.35 326.607 100.322C326.525 99.5293 326.37 98.8184 326.142 98.1895C325.915 97.5605 325.623 97.0273 325.267 96.5898C324.912 96.1523 324.493 95.8151 324.01 95.5781C323.527 95.3411 322.993 95.2227 322.41 95.2227C321.881 95.2227 321.394 95.3411 320.947 95.5781C320.51 95.806 320.127 96.1387 319.799 96.5762C319.471 97.0137 319.206 97.5514 319.006 98.1895C318.805 98.8184 318.687 99.5384 318.65 100.35C319.06 100.368 319.493 100.377 319.949 100.377C320.405 100.377 320.879 100.377 321.371 100.377ZM338.42 97.2188L338.228 97.2461C338.165 97.0365 338.06 96.8132 337.914 96.5762C337.777 96.3392 337.595 96.1204 337.367 95.9199C337.148 95.7194 336.879 95.5553 336.56 95.4277C336.25 95.291 335.89 95.2227 335.48 95.2227C335.198 95.2227 334.929 95.2637 334.674 95.3457C334.428 95.4277 334.209 95.5508 334.017 95.7148C333.835 95.8698 333.689 96.0658 333.58 96.3027C333.471 96.5397 333.416 96.8177 333.416 97.1367C333.416 97.5833 333.553 98.0117 333.826 98.4219C334.109 98.8229 334.459 99.224 334.879 99.625C335.298 100.017 335.749 100.413 336.232 100.814C336.724 101.215 337.18 101.635 337.599 102.072C338.019 102.51 338.365 102.979 338.639 103.48C338.921 103.973 339.062 104.506 339.062 105.08C339.062 105.545 338.98 106.001 338.816 106.447C338.652 106.885 338.397 107.277 338.051 107.623C337.713 107.969 337.276 108.252 336.738 108.471C336.209 108.68 335.576 108.785 334.838 108.785C334.4 108.785 333.99 108.744 333.607 108.662C333.234 108.58 332.887 108.48 332.568 108.361C332.258 108.234 331.976 108.097 331.721 107.951C331.474 107.796 331.256 107.65 331.064 107.514L331.201 104.916H331.42C331.511 105.344 331.648 105.736 331.83 106.092C332.012 106.447 332.236 106.753 332.5 107.008C332.773 107.254 333.083 107.45 333.43 107.596C333.776 107.732 334.154 107.801 334.564 107.801C335.239 107.801 335.772 107.614 336.164 107.24C336.565 106.867 336.765 106.379 336.765 105.777C336.765 105.294 336.629 104.852 336.355 104.451C336.091 104.041 335.754 103.649 335.344 103.275C334.933 102.902 334.491 102.528 334.017 102.154C333.553 101.781 333.115 101.384 332.705 100.965C332.295 100.536 331.953 100.072 331.68 99.5703C331.415 99.0599 331.283 98.4811 331.283 97.834C331.283 97.3053 331.379 96.8223 331.57 96.3848C331.771 95.9382 332.044 95.5599 332.39 95.25C332.746 94.931 333.165 94.6849 333.648 94.5117C334.131 94.3385 334.66 94.252 335.234 94.252C335.991 94.252 336.62 94.334 337.121 94.498C337.631 94.653 338.019 94.8034 338.283 94.9492L338.42 97.2188ZM342.248 99.8164C342.248 99.0417 342.234 98.3672 342.207 97.793C342.189 97.2096 342.161 96.7083 342.125 96.2891C342.098 95.8698 342.056 95.5189 342.002 95.2363C341.956 94.9538 341.906 94.7168 341.851 94.5254V94.4707H345.01V94.5254C344.955 94.7168 344.905 94.9538 344.859 95.2363C344.814 95.5189 344.773 95.8698 344.736 96.2891C344.7 96.7083 344.672 97.2096 344.654 97.793C344.636 98.3672 344.627 99.0417 344.627 99.8164V103.125C344.627 103.9 344.636 104.579 344.654 105.162C344.672 105.736 344.7 106.233 344.736 106.652C344.773 107.072 344.814 107.423 344.859 107.705C344.905 107.988 344.955 108.225 345.01 108.416V108.471H341.851V108.416C341.906 108.225 341.956 107.988 342.002 107.705C342.056 107.423 342.098 107.072 342.125 106.652C342.161 106.233 342.189 105.736 342.207 105.162C342.234 104.579 342.248 103.9 342.248 103.125V99.8164ZM341.961 90.3281C341.961 90.1276 341.997 89.9408 342.07 89.7676C342.152 89.5853 342.257 89.4303 342.385 89.3027C342.512 89.166 342.663 89.0612 342.836 88.9883C343.018 88.9062 343.214 88.8652 343.424 88.8652C343.633 88.8652 343.825 88.9062 343.998 88.9883C344.18 89.0612 344.335 89.166 344.463 89.3027C344.599 89.4303 344.704 89.5853 344.777 89.7676C344.859 89.9408 344.9 90.1276 344.9 90.3281C344.9 90.7474 344.759 91.0983 344.476 91.3809C344.194 91.6634 343.843 91.8047 343.424 91.8047C343.214 91.8047 343.018 91.7682 342.836 91.6953C342.663 91.6133 342.512 91.5085 342.385 91.3809C342.257 91.2441 342.152 91.0892 342.07 90.916C341.997 90.7337 341.961 90.5378 341.961 90.3281ZM354.211 114.719C354.949 114.719 355.573 114.637 356.084 114.473C356.594 114.318 357.014 114.099 357.342 113.816C357.679 113.534 357.934 113.192 358.107 112.791C358.29 112.399 358.422 111.966 358.504 111.492C358.595 111.018 358.645 110.512 358.654 109.975C358.672 109.437 358.681 108.881 358.681 108.307V107.855C358.235 108.092 357.697 108.298 357.068 108.471C356.439 108.635 355.728 108.717 354.935 108.717C353.851 108.717 352.866 108.548 351.982 108.211C351.098 107.874 350.342 107.391 349.713 106.762C349.093 106.133 348.614 105.372 348.277 104.479C347.94 103.576 347.771 102.564 347.771 101.443C347.771 100.413 347.935 99.4564 348.264 98.5723C348.601 97.6882 349.07 96.9225 349.672 96.2754C350.282 95.6283 351.007 95.1224 351.846 94.7578C352.693 94.3841 353.627 94.1973 354.648 94.1973C355.086 94.1973 355.487 94.2337 355.851 94.3066C356.216 94.3796 356.553 94.4798 356.863 94.6074C357.182 94.7259 357.478 94.8672 357.752 95.0312C358.034 95.1862 358.308 95.3548 358.572 95.5371L358.435 94.5254V94.4707H361.457V94.5254C361.402 94.7168 361.348 94.9538 361.293 95.2363C361.247 95.5189 361.206 95.8698 361.17 96.2891C361.142 96.7083 361.115 97.2096 361.088 97.793C361.07 98.3672 361.06 99.0417 361.06 99.8164V109.113C361.06 109.952 360.946 110.768 360.719 111.561C360.5 112.363 360.122 113.074 359.584 113.693C359.055 114.313 358.353 114.81 357.478 115.184C356.603 115.557 355.514 115.744 354.211 115.744C353.755 115.744 353.295 115.699 352.83 115.607C352.365 115.525 351.923 115.421 351.504 115.293C351.084 115.174 350.706 115.042 350.369 114.896C350.032 114.751 349.763 114.623 349.562 114.514L349.139 111.889L349.357 111.834C349.576 112.308 349.872 112.723 350.246 113.078C350.629 113.443 351.043 113.743 351.49 113.98C351.937 114.227 352.397 114.409 352.871 114.527C353.354 114.655 353.801 114.719 354.211 114.719ZM355.551 107.719C356.207 107.719 356.799 107.609 357.328 107.391C357.866 107.172 358.317 106.917 358.681 106.625V99.8164C358.681 99.306 358.677 98.8457 358.668 98.4355C358.659 98.0163 358.654 97.638 358.654 97.3008C358.435 96.9635 358.18 96.6673 357.889 96.4121C357.606 96.1478 357.301 95.929 356.973 95.7559C356.653 95.5736 356.325 95.4368 355.988 95.3457C355.651 95.2454 355.318 95.1953 354.99 95.1953C354.297 95.1953 353.673 95.3229 353.117 95.5781C352.561 95.8333 352.087 96.2025 351.695 96.6855C351.312 97.1595 351.016 97.7428 350.806 98.4355C350.606 99.1191 350.506 99.8984 350.506 100.773C350.506 101.758 350.615 102.674 350.834 103.521C351.053 104.369 351.372 105.107 351.791 105.736C352.219 106.356 352.748 106.844 353.377 107.199C354.006 107.546 354.73 107.719 355.551 107.719ZM374.678 99.2559C374.678 98.0527 374.436 97.1686 373.953 96.6035C373.47 96.0384 372.823 95.7559 372.012 95.7559C371.72 95.7559 371.392 95.8197 371.027 95.9473C370.663 96.0658 370.289 96.2298 369.906 96.4395C369.523 96.64 369.14 96.877 368.758 97.1504C368.375 97.4238 368.015 97.7155 367.678 98.0254L367.65 99.8164V103.125C367.65 103.9 367.659 104.579 367.678 105.162C367.696 105.736 367.723 106.233 367.76 106.652C367.796 107.072 367.837 107.423 367.883 107.705C367.928 107.988 367.978 108.225 368.033 108.416V108.471H364.875V108.416C364.93 108.225 364.98 107.988 365.025 107.705C365.08 107.423 365.121 107.072 365.148 106.652C365.185 106.233 365.212 105.736 365.23 105.162C365.258 104.579 365.271 103.9 365.271 103.125V99.8164C365.271 99.0417 365.258 98.3672 365.23 97.793C365.212 97.2096 365.185 96.7083 365.148 96.2891C365.121 95.8698 365.08 95.5189 365.025 95.2363C364.98 94.9538 364.93 94.7168 364.875 94.5254V94.4707H368.033V94.5254C367.96 94.7533 367.901 95.0449 367.855 95.4004C367.819 95.7467 367.778 96.2025 367.732 96.7676C368.106 96.4577 368.507 96.1478 368.935 95.8379C369.373 95.528 369.824 95.2546 370.289 95.0176C370.754 94.7715 371.228 94.5755 371.711 94.4297C372.194 94.2747 372.668 94.1973 373.133 94.1973C373.844 94.1973 374.445 94.3203 374.937 94.5664C375.439 94.8125 375.844 95.1361 376.154 95.5371C376.473 95.9382 376.701 96.3984 376.838 96.918C376.984 97.4284 377.056 97.9479 377.056 98.4766V103.125C377.056 103.9 377.066 104.579 377.084 105.162C377.102 105.736 377.129 106.233 377.166 106.652C377.202 107.072 377.243 107.423 377.289 107.705C377.334 107.988 377.385 108.225 377.439 108.416V108.471H374.281V108.416C374.336 108.225 374.386 107.988 374.431 107.705C374.486 107.423 374.527 107.072 374.555 106.652C374.591 106.233 374.618 105.736 374.637 105.162C374.664 104.579 374.678 103.9 374.678 103.125V99.2559Z" fill="#436FC0"/>
<rect width="538.971" height="194.942" transform="translate(539.971 1)" fill="#1C1E31"/>
<path d="M701.914 99.4434L718.413 115.943" stroke="white" stroke-width="2"/>
<path d="M716.498 98.4717V82.9161" stroke="white" stroke-width="2"/>
<path d="M703.015 110.142C702.625 110.532 702.625 111.165 703.015 111.556C703.406 111.946 704.039 111.946 704.429 111.556L703.722 110.849L703.015 110.142ZM716.803 99.1814L717.51 98.4742L716.096 97.06L715.389 97.7671L716.096 98.4742L716.803 99.1814ZM703.722 110.849L704.429 111.556L716.803 99.1814L716.096 98.4742L715.389 97.7671L703.015 110.142L703.722 110.849Z" fill="white"/>
<path d="M718.442 82.916L734.941 99.4152" stroke="white" stroke-width="2"/>
<path d="M696.199 101.27C698.282 103.353 701.659 103.353 703.742 101.27C705.825 99.1875 705.825 95.8106 703.742 93.7277C701.659 91.6449 698.282 91.6449 696.199 93.7277C694.117 95.8106 694.117 99.1875 696.199 101.27ZM712.698 84.7711C714.781 86.8539 718.158 86.8539 720.241 84.7711C722.323 82.6883 722.323 79.3114 720.241 77.2285C718.158 75.1457 714.781 75.1457 712.698 77.2285C710.615 79.3114 710.615 82.6883 712.698 84.7711ZM699.971 97.499L700.678 98.2061L717.176 81.7069L716.469 80.9998L715.762 80.2927L699.263 96.7919L699.971 97.499Z" fill="white"/>
<path d="M712.727 117.799C714.809 119.881 718.186 119.881 720.269 117.799C722.352 115.716 722.352 112.339 720.269 110.256C718.186 108.173 714.809 108.173 712.727 110.256C710.644 112.339 710.644 115.716 712.727 117.799ZM729.225 101.299C731.308 103.382 734.685 103.382 736.768 101.299C738.851 99.2166 738.851 95.8397 736.768 93.7569C734.685 91.674 731.308 91.674 729.225 93.7569C727.143 95.8397 727.143 99.2166 729.225 101.299ZM716.498 114.027L717.205 114.734L733.704 98.2353L732.997 97.5282L732.29 96.821L715.791 113.32L716.498 114.027Z" fill="white"/>
<path d="M762.459 99.0918C762.094 99.0827 761.638 99.0781 761.092 99.0781C760.545 99.069 759.948 99.0599 759.301 99.0508C758.663 99.0417 757.993 99.0371 757.291 99.0371C756.598 99.028 755.919 99.0234 755.254 99.0234C754.588 99.0143 753.955 99.0143 753.353 99.0234C752.752 99.0326 752.228 99.0462 751.781 99.0645V103.125C751.781 103.9 751.79 104.579 751.808 105.162C751.836 105.736 751.863 106.233 751.89 106.652C751.927 107.072 751.968 107.423 752.013 107.705C752.068 107.988 752.123 108.225 752.177 108.416V108.471H748.896V108.416C748.951 108.225 749.001 107.988 749.047 107.705C749.101 107.423 749.147 107.072 749.183 106.652C749.22 106.233 749.247 105.736 749.265 105.162C749.284 104.579 749.293 103.9 749.293 103.125V94.2246C749.293 93.4499 749.284 92.7754 749.265 92.2012C749.247 91.6178 749.22 91.1165 749.183 90.6973C749.147 90.2689 749.101 89.9134 749.047 89.6309C749.001 89.3483 748.951 89.1113 748.896 88.9199V88.8652H752.177V88.9199C752.123 89.1113 752.068 89.3483 752.013 89.6309C751.968 89.9134 751.927 90.2689 751.89 90.6973C751.863 91.1165 751.836 91.6178 751.808 92.2012C751.79 92.7754 751.781 93.4499 751.781 94.2246V97.7246C752.255 97.7428 752.793 97.7565 753.394 97.7656C753.996 97.7656 754.625 97.7656 755.281 97.7656C755.937 97.7565 756.603 97.7474 757.277 97.7383C757.961 97.7292 758.617 97.7201 759.246 97.7109C759.884 97.6927 760.476 97.6745 761.023 97.6562C761.579 97.638 762.058 97.6198 762.459 97.6016V94.2246C762.459 93.4499 762.445 92.7754 762.418 92.2012C762.399 91.6178 762.372 91.1165 762.336 90.6973C762.308 90.2689 762.267 89.9134 762.213 89.6309C762.167 89.3483 762.117 89.1113 762.062 88.9199V88.8652H765.344V88.9199C765.289 89.1113 765.234 89.3483 765.179 89.6309C765.134 89.9134 765.093 90.2689 765.056 90.6973C765.02 91.1165 764.993 91.6178 764.974 92.2012C764.956 92.7754 764.947 93.4499 764.947 94.2246V103.125C764.947 103.9 764.956 104.579 764.974 105.162C764.993 105.736 765.02 106.233 765.056 106.652C765.093 107.072 765.134 107.423 765.179 107.705C765.234 107.988 765.289 108.225 765.344 108.416V108.471H762.062V108.416C762.117 108.225 762.167 107.988 762.213 107.705C762.267 107.423 762.308 107.072 762.336 106.652C762.372 106.233 762.399 105.736 762.418 105.162C762.445 104.579 762.459 103.9 762.459 103.125V99.0918ZM769.5 99.8164C769.5 99.0417 769.486 98.3672 769.459 97.793C769.441 97.2096 769.413 96.7083 769.377 96.2891C769.349 95.8698 769.308 95.5189 769.254 95.2363C769.208 94.9538 769.158 94.7168 769.103 94.5254V94.4707H772.261V94.5254C772.207 94.7168 772.157 94.9538 772.111 95.2363C772.066 95.5189 772.024 95.8698 771.988 96.2891C771.952 96.7083 771.924 97.2096 771.906 97.793C771.888 98.3672 771.879 99.0417 771.879 99.8164V103.125C771.879 103.9 771.888 104.579 771.906 105.162C771.924 105.736 771.952 106.233 771.988 106.652C772.024 107.072 772.066 107.423 772.111 107.705C772.157 107.988 772.207 108.225 772.261 108.416V108.471H769.103V108.416C769.158 108.225 769.208 107.988 769.254 107.705C769.308 107.423 769.349 107.072 769.377 106.652C769.413 106.233 769.441 105.736 769.459 105.162C769.486 104.579 769.5 103.9 769.5 103.125V99.8164ZM769.213 90.3281C769.213 90.1276 769.249 89.9408 769.322 89.7676C769.404 89.5853 769.509 89.4303 769.636 89.3027C769.764 89.166 769.914 89.0612 770.088 88.9883C770.27 88.9062 770.466 88.8652 770.676 88.8652C770.885 88.8652 771.077 88.9062 771.25 88.9883C771.432 89.0612 771.587 89.166 771.715 89.3027C771.851 89.4303 771.956 89.5853 772.029 89.7676C772.111 89.9408 772.152 90.1276 772.152 90.3281C772.152 90.7474 772.011 91.0983 771.728 91.3809C771.446 91.6634 771.095 91.8047 770.676 91.8047C770.466 91.8047 770.27 91.7682 770.088 91.6953C769.914 91.6133 769.764 91.5085 769.636 91.3809C769.509 91.2441 769.404 91.0892 769.322 90.916C769.249 90.7337 769.213 90.5378 769.213 90.3281ZM776.172 93.377C776.172 92.6022 776.158 91.9277 776.131 91.3535C776.112 90.7702 776.085 90.2689 776.049 89.8496C776.021 89.4303 775.98 89.0794 775.926 88.7969C775.88 88.5143 775.83 88.2773 775.775 88.0859V88.0312H778.933V88.0859C778.879 88.2773 778.829 88.5143 778.783 88.7969C778.737 89.0794 778.696 89.4303 778.66 89.8496C778.623 90.2689 778.596 90.7702 778.578 91.3535C778.56 91.9277 778.551 92.6022 778.551 93.377V100.186L783.021 96.1797C783.805 95.4961 784.197 94.9264 784.197 94.4707H787.369V94.5254C787.132 94.5983 786.904 94.694 786.685 94.8125C786.476 94.9219 786.261 95.054 786.043 95.209C785.833 95.3639 785.61 95.5417 785.373 95.7422C785.145 95.9336 784.894 96.1523 784.621 96.3984L780.615 100.049L786.111 106.543C786.275 106.743 786.453 106.949 786.644 107.158C786.836 107.359 787.027 107.546 787.219 107.719C787.41 107.892 787.597 108.042 787.779 108.17C787.961 108.298 788.13 108.38 788.285 108.416V108.471H784.32C784.32 108.234 784.256 107.988 784.129 107.732C784.01 107.477 783.791 107.154 783.472 106.762L778.551 100.91V103.125C778.551 103.9 778.56 104.579 778.578 105.162C778.596 105.736 778.623 106.233 778.66 106.652C778.696 107.072 778.737 107.423 778.783 107.705C778.829 107.988 778.879 108.225 778.933 108.416V108.471H775.775V108.416C775.83 108.225 775.88 107.988 775.926 107.705C775.98 107.423 776.021 107.072 776.049 106.652C776.085 106.233 776.112 105.736 776.131 105.162C776.158 104.579 776.172 103.9 776.172 103.125V93.377ZM788.367 101.443C788.367 100.413 788.558 99.4609 788.941 98.5859C789.324 97.7018 789.848 96.9362 790.513 96.2891C791.188 95.6419 791.981 95.1361 792.892 94.7715C793.804 94.4069 794.784 94.2246 795.832 94.2246C796.862 94.2246 797.828 94.3978 798.73 94.7441C799.642 95.0814 800.435 95.5645 801.109 96.1934C801.784 96.8223 802.312 97.5879 802.695 98.4902C803.087 99.3926 803.283 100.404 803.283 101.525C803.283 102.464 803.119 103.367 802.791 104.232C802.463 105.098 801.98 105.864 801.342 106.529C800.704 107.195 799.92 107.728 798.99 108.129C798.069 108.521 797.008 108.717 795.804 108.717C794.784 108.717 793.822 108.548 792.92 108.211C792.017 107.874 791.229 107.391 790.554 106.762C789.88 106.133 789.347 105.372 788.955 104.479C788.563 103.576 788.367 102.564 788.367 101.443ZM796.119 107.719C796.766 107.719 797.358 107.591 797.896 107.336C798.443 107.081 798.913 106.712 799.304 106.229C799.696 105.745 800.002 105.158 800.22 104.465C800.439 103.772 800.549 102.988 800.549 102.113C800.549 101.129 800.444 100.217 800.234 99.3789C800.024 98.5312 799.71 97.8021 799.291 97.1914C798.881 96.5716 798.361 96.0885 797.732 95.7422C797.103 95.3958 796.37 95.2227 795.531 95.2227C794.884 95.2227 794.291 95.3503 793.754 95.6055C793.216 95.8516 792.747 96.2116 792.345 96.6855C791.954 97.1595 791.648 97.7428 791.429 98.4355C791.211 99.1191 791.101 99.8984 791.101 100.773C791.101 101.758 791.206 102.674 791.416 103.521C791.635 104.369 791.954 105.107 792.373 105.736C792.792 106.356 793.312 106.844 793.931 107.199C794.56 107.546 795.289 107.719 796.119 107.719ZM806.359 99.8164C806.359 99.0417 806.345 98.3672 806.318 97.793C806.3 97.2096 806.273 96.7083 806.236 96.2891C806.209 95.8698 806.168 95.5189 806.113 95.2363C806.067 94.9538 806.017 94.7168 805.963 94.5254V94.4707H809.121V94.5254C809.048 94.735 808.984 94.9902 808.929 95.291C808.884 95.5918 808.847 95.9792 808.82 96.4531C809.157 96.1706 809.508 95.8926 809.873 95.6191C810.237 95.3457 810.611 95.1042 810.994 94.8945C811.377 94.6849 811.764 94.5163 812.156 94.3887C812.557 94.2611 812.958 94.1973 813.359 94.1973C813.605 94.1973 813.819 94.2109 814.002 94.2383C814.184 94.2565 814.348 94.2884 814.494 94.334C814.64 94.3704 814.772 94.416 814.89 94.4707C815.009 94.5163 815.123 94.5618 815.232 94.6074L814.562 97.2188L814.33 97.1641C814.22 96.763 814.015 96.444 813.715 96.207C813.414 95.9609 813.004 95.8379 812.484 95.8379C812.202 95.8379 811.905 95.888 811.595 95.9883C811.286 96.0885 810.971 96.2298 810.652 96.4121C810.333 96.5853 810.014 96.7904 809.695 97.0273C809.376 97.2552 809.066 97.4967 808.765 97.752C808.747 98.0163 808.738 98.3034 808.738 98.6133C808.738 98.9232 808.738 99.2513 808.738 99.5977V103.125C808.738 103.9 808.747 104.579 808.765 105.162C808.784 105.736 808.811 106.233 808.847 106.652C808.884 107.072 808.925 107.423 808.97 107.705C809.016 107.988 809.066 108.225 809.121 108.416V108.471H805.963V108.416C806.017 108.225 806.067 107.988 806.113 107.705C806.168 107.423 806.209 107.072 806.236 106.652C806.273 106.233 806.3 105.736 806.318 105.162C806.345 104.579 806.359 103.9 806.359 103.125V99.8164ZM815.683 104.438C815.683 103.717 815.829 103.093 816.121 102.564C816.422 102.036 816.818 101.585 817.31 101.211C817.802 100.837 818.363 100.536 818.992 100.309C819.621 100.072 820.273 99.8893 820.947 99.7617C821.622 99.625 822.287 99.5339 822.943 99.4883C823.599 99.4336 824.201 99.4017 824.748 99.3926V98.6953C824.748 98.0938 824.67 97.5742 824.515 97.1367C824.36 96.6992 824.142 96.3392 823.859 96.0566C823.577 95.765 823.235 95.5508 822.834 95.4141C822.442 95.2682 822.009 95.1953 821.535 95.1953C821.207 95.1953 820.883 95.2227 820.564 95.2773C820.245 95.332 819.913 95.4232 819.566 95.5508C819.229 95.6784 818.869 95.8516 818.486 96.0703C818.112 96.2891 817.707 96.5671 817.269 96.9043L817.133 96.8223L818.062 94.8945C818.363 94.7578 818.659 94.6484 818.951 94.5664C819.243 94.4753 819.539 94.4023 819.84 94.3477C820.14 94.293 820.446 94.2565 820.756 94.2383C821.075 94.2109 821.407 94.1973 821.754 94.1973C822.711 94.1973 823.526 94.3158 824.201 94.5527C824.885 94.7806 825.441 95.0996 825.869 95.5098C826.306 95.9108 826.625 96.3848 826.826 96.9316C827.026 97.4694 827.127 98.0482 827.127 98.668V103.125C827.127 103.9 827.136 104.579 827.154 105.162C827.181 105.736 827.209 106.233 827.236 106.652C827.273 107.072 827.314 107.423 827.359 107.705C827.414 107.988 827.469 108.225 827.523 108.416V108.471H824.502V108.416C824.547 108.27 824.579 108.106 824.597 107.924C824.625 107.742 824.648 107.523 824.666 107.268C824.474 107.432 824.247 107.6 823.982 107.773C823.727 107.947 823.431 108.106 823.094 108.252C822.765 108.389 822.396 108.498 821.986 108.58C821.585 108.671 821.143 108.717 820.66 108.717C819.074 108.717 817.848 108.348 816.982 107.609C816.116 106.862 815.683 105.805 815.683 104.438ZM824.748 100.459C823.918 100.468 823.121 100.518 822.355 100.609C821.59 100.691 820.911 100.869 820.318 101.143C819.735 101.416 819.265 101.808 818.91 102.318C818.564 102.82 818.39 103.49 818.39 104.328C818.39 105.404 818.659 106.224 819.197 106.789C819.735 107.354 820.478 107.637 821.426 107.637C821.863 107.637 822.26 107.577 822.615 107.459C822.98 107.331 823.299 107.176 823.572 106.994C823.855 106.803 824.092 106.598 824.283 106.379C824.474 106.151 824.62 105.932 824.72 105.723C824.739 105.376 824.748 104.993 824.748 104.574C824.748 104.146 824.748 103.663 824.748 103.125V100.459Z" fill="white"/>
<path d="M838.89 90.041C838.872 91.0618 838.854 92.0508 838.836 93.0078C838.827 93.418 838.817 93.8372 838.808 94.2656C838.808 94.694 838.804 95.1178 838.795 95.5371C838.795 95.9473 838.79 96.3438 838.781 96.7266C838.781 97.1003 838.781 97.4329 838.781 97.7246C838.781 98.3353 838.786 99.0736 838.795 99.9395C838.804 100.805 838.813 101.694 838.822 102.605C838.84 103.517 838.863 104.392 838.89 105.23C838.918 106.069 838.95 106.766 838.986 107.322C839.114 107.34 839.282 107.363 839.492 107.391C839.711 107.409 839.939 107.427 840.176 107.445C840.413 107.454 840.645 107.464 840.873 107.473C841.101 107.482 841.292 107.486 841.447 107.486C842.085 107.486 842.737 107.445 843.402 107.363C844.077 107.272 844.724 107.108 845.344 106.871C845.972 106.634 846.56 106.311 847.107 105.9C847.663 105.481 848.146 104.943 848.556 104.287C848.976 103.631 849.304 102.842 849.541 101.922C849.778 100.992 849.896 99.8984 849.896 98.6406C849.896 97.2461 849.728 96.0065 849.39 94.9219C849.053 93.8281 848.556 92.9076 847.9 92.1602C847.253 91.4128 846.446 90.8477 845.48 90.4648C844.523 90.0729 843.42 89.877 842.172 89.877C841.926 89.877 841.648 89.8861 841.338 89.9043C841.028 89.9134 840.718 89.9271 840.408 89.9453C840.107 89.9544 839.82 89.9727 839.547 90C839.282 90.0182 839.064 90.0319 838.89 90.041ZM835.896 88.8105C836.106 88.8197 836.302 88.8288 836.484 88.8379C836.639 88.847 836.799 88.8561 836.963 88.8652C837.127 88.8652 837.259 88.8652 837.359 88.8652C837.532 88.8652 837.819 88.8561 838.22 88.8379C838.631 88.8197 839.095 88.8014 839.615 88.7832C840.135 88.765 840.672 88.7467 841.228 88.7285C841.793 88.7103 842.322 88.7012 842.814 88.7012C844.136 88.7012 845.394 88.8652 846.588 89.1934C847.782 89.5215 848.83 90.0592 849.732 90.8066C850.635 91.554 851.35 92.5339 851.879 93.7461C852.407 94.9583 852.672 96.4486 852.672 98.2168C852.672 99.4837 852.53 100.623 852.248 101.635C851.974 102.646 851.587 103.54 851.086 104.314C850.584 105.089 849.983 105.755 849.281 106.311C848.588 106.857 847.818 107.309 846.97 107.664C846.132 108.02 845.234 108.279 844.277 108.443C843.32 108.607 842.331 108.689 841.31 108.689C840.946 108.689 840.504 108.676 839.984 108.648C839.474 108.63 838.959 108.607 838.439 108.58C837.92 108.553 837.427 108.525 836.963 108.498C836.507 108.48 836.151 108.471 835.896 108.471V108.416C835.951 108.225 836.001 107.988 836.047 107.705C836.101 107.423 836.147 107.072 836.183 106.652C836.22 106.233 836.247 105.736 836.265 105.162C836.284 104.579 836.293 103.9 836.293 103.125V94.2246C836.293 93.4499 836.284 92.7708 836.265 92.1875C836.247 91.5951 836.22 91.0892 836.183 90.6699C836.147 90.2415 836.101 89.8815 836.047 89.5898C836.001 89.2982 835.951 89.0566 835.896 88.8652V88.8105ZM862.16 108.717C861.148 108.717 860.2 108.557 859.316 108.238C858.432 107.919 857.662 107.454 857.006 106.844C856.349 106.224 855.83 105.463 855.447 104.561C855.073 103.649 854.886 102.61 854.886 101.443C854.886 100.413 855.06 99.4609 855.406 98.5859C855.752 97.7018 856.231 96.9362 856.842 96.2891C857.452 95.6419 858.163 95.1361 858.974 94.7715C859.795 94.4069 860.679 94.2246 861.627 94.2246C862.566 94.2246 863.436 94.3887 864.238 94.7168C865.04 95.0358 865.733 95.5052 866.316 96.125C866.909 96.7357 867.373 97.4967 867.711 98.4082C868.057 99.3105 868.244 100.34 868.271 101.498C867.241 101.48 866.211 101.466 865.181 101.457C864.151 101.448 863.08 101.443 861.969 101.443C861.176 101.443 860.401 101.448 859.644 101.457C858.897 101.466 858.222 101.48 857.621 101.498C857.676 102.446 857.821 103.303 858.058 104.068C858.304 104.834 858.637 105.49 859.056 106.037C859.485 106.575 860 106.99 860.601 107.281C861.212 107.573 861.9 107.719 862.666 107.719C863.194 107.719 863.691 107.66 864.156 107.541C864.63 107.413 865.058 107.24 865.441 107.021C865.824 106.803 866.166 106.548 866.467 106.256C866.767 105.955 867.023 105.632 867.232 105.285L867.396 105.367L866.385 107.801C865.892 108.056 865.304 108.275 864.621 108.457C863.937 108.63 863.117 108.717 862.16 108.717ZM860.342 100.377C861.253 100.377 862.164 100.377 863.076 100.377C863.997 100.368 864.83 100.35 865.578 100.322C865.496 99.5293 865.341 98.8184 865.113 98.1895C864.885 97.5605 864.594 97.0273 864.238 96.5898C863.883 96.1523 863.463 95.8151 862.98 95.5781C862.497 95.3411 861.964 95.2227 861.381 95.2227C860.852 95.2227 860.364 95.3411 859.918 95.5781C859.48 95.806 859.097 96.1387 858.769 96.5762C858.441 97.0137 858.177 97.5514 857.976 98.1895C857.776 98.8184 857.657 99.5384 857.621 100.35C858.031 100.368 858.464 100.377 858.92 100.377C859.375 100.377 859.849 100.377 860.342 100.377ZM877.39 97.2188L877.199 97.2461C877.135 97.0365 877.03 96.8132 876.885 96.5762C876.748 96.3392 876.566 96.1204 876.338 95.9199C876.119 95.7194 875.85 95.5553 875.531 95.4277C875.221 95.291 874.861 95.2227 874.451 95.2227C874.168 95.2227 873.899 95.2637 873.644 95.3457C873.398 95.4277 873.179 95.5508 872.988 95.7148C872.806 95.8698 872.66 96.0658 872.551 96.3027C872.441 96.5397 872.386 96.8177 872.386 97.1367C872.386 97.5833 872.523 98.0117 872.797 98.4219C873.079 98.8229 873.43 99.224 873.849 99.625C874.269 100.017 874.72 100.413 875.203 100.814C875.695 101.215 876.151 101.635 876.57 102.072C876.989 102.51 877.336 102.979 877.609 103.48C877.892 103.973 878.033 104.506 878.033 105.08C878.033 105.545 877.951 106.001 877.787 106.447C877.623 106.885 877.368 107.277 877.021 107.623C876.684 107.969 876.247 108.252 875.709 108.471C875.18 108.68 874.547 108.785 873.808 108.785C873.371 108.785 872.961 108.744 872.578 108.662C872.204 108.58 871.858 108.48 871.539 108.361C871.229 108.234 870.946 108.097 870.691 107.951C870.445 107.796 870.226 107.65 870.035 107.514L870.172 104.916H870.39C870.482 105.344 870.618 105.736 870.801 106.092C870.983 106.447 871.206 106.753 871.47 107.008C871.744 107.254 872.054 107.45 872.4 107.596C872.747 107.732 873.125 107.801 873.535 107.801C874.209 107.801 874.743 107.614 875.135 107.24C875.536 106.867 875.736 106.379 875.736 105.777C875.736 105.294 875.599 104.852 875.326 104.451C875.062 104.041 874.724 103.649 874.314 103.275C873.904 102.902 873.462 102.528 872.988 102.154C872.523 101.781 872.086 101.384 871.676 100.965C871.265 100.536 870.924 100.072 870.65 99.5703C870.386 99.0599 870.254 98.4811 870.254 97.834C870.254 97.3053 870.349 96.8223 870.541 96.3848C870.741 95.9382 871.015 95.5599 871.361 95.25C871.717 94.931 872.136 94.6849 872.619 94.5117C873.102 94.3385 873.631 94.252 874.205 94.252C874.961 94.252 875.59 94.334 876.092 94.498C876.602 94.653 876.989 94.8034 877.254 94.9492L877.39 97.2188ZM881.219 99.8164C881.219 99.0417 881.205 98.3672 881.177 97.793C881.159 97.2096 881.132 96.7083 881.095 96.2891C881.068 95.8698 881.027 95.5189 880.972 95.2363C880.927 94.9538 880.877 94.7168 880.822 94.5254V94.4707H883.98V94.5254C883.926 94.7168 883.875 94.9538 883.83 95.2363C883.784 95.5189 883.743 95.8698 883.707 96.2891C883.67 96.7083 883.643 97.2096 883.625 97.793C883.607 98.3672 883.597 99.0417 883.597 99.8164V103.125C883.597 103.9 883.607 104.579 883.625 105.162C883.643 105.736 883.67 106.233 883.707 106.652C883.743 107.072 883.784 107.423 883.83 107.705C883.875 107.988 883.926 108.225 883.98 108.416V108.471H880.822V108.416C880.877 108.225 880.927 107.988 880.972 107.705C881.027 107.423 881.068 107.072 881.095 106.652C881.132 106.233 881.159 105.736 881.177 105.162C881.205 104.579 881.219 103.9 881.219 103.125V99.8164ZM880.931 90.3281C880.931 90.1276 880.968 89.9408 881.041 89.7676C881.123 89.5853 881.228 89.4303 881.355 89.3027C881.483 89.166 881.633 89.0612 881.806 88.9883C881.989 88.9062 882.185 88.8652 882.394 88.8652C882.604 88.8652 882.795 88.9062 882.969 88.9883C883.151 89.0612 883.306 89.166 883.433 89.3027C883.57 89.4303 883.675 89.5853 883.748 89.7676C883.83 89.9408 883.871 90.1276 883.871 90.3281C883.871 90.7474 883.73 91.0983 883.447 91.3809C883.164 91.6634 882.814 91.8047 882.394 91.8047C882.185 91.8047 881.989 91.7682 881.806 91.6953C881.633 91.6133 881.483 91.5085 881.355 91.3809C881.228 91.2441 881.123 91.0892 881.041 90.916C880.968 90.7337 880.931 90.5378 880.931 90.3281ZM893.181 114.719C893.92 114.719 894.544 114.637 895.054 114.473C895.565 114.318 895.984 114.099 896.312 113.816C896.649 113.534 896.905 113.192 897.078 112.791C897.26 112.399 897.392 111.966 897.474 111.492C897.566 111.018 897.616 110.512 897.625 109.975C897.643 109.437 897.652 108.881 897.652 108.307V107.855C897.205 108.092 896.668 108.298 896.039 108.471C895.41 108.635 894.699 108.717 893.906 108.717C892.821 108.717 891.837 108.548 890.953 108.211C890.069 107.874 889.312 107.391 888.683 106.762C888.064 106.133 887.585 105.372 887.248 104.479C886.911 103.576 886.742 102.564 886.742 101.443C886.742 100.413 886.906 99.4564 887.234 98.5723C887.571 97.6882 888.041 96.9225 888.642 96.2754C889.253 95.6283 889.978 95.1224 890.816 94.7578C891.664 94.3841 892.598 94.1973 893.619 94.1973C894.056 94.1973 894.457 94.2337 894.822 94.3066C895.187 94.3796 895.524 94.4798 895.834 94.6074C896.153 94.7259 896.449 94.8672 896.722 95.0312C897.005 95.1862 897.278 95.3548 897.543 95.5371L897.406 94.5254V94.4707H900.427V94.5254C900.373 94.7168 900.318 94.9538 900.263 95.2363C900.218 95.5189 900.177 95.8698 900.14 96.2891C900.113 96.7083 900.086 97.2096 900.058 97.793C900.04 98.3672 900.031 99.0417 900.031 99.8164V109.113C900.031 109.952 899.917 110.768 899.689 111.561C899.47 112.363 899.092 113.074 898.554 113.693C898.026 114.313 897.324 114.81 896.449 115.184C895.574 115.557 894.485 115.744 893.181 115.744C892.726 115.744 892.265 115.699 891.801 115.607C891.336 115.525 890.894 115.421 890.474 115.293C890.055 115.174 889.677 115.042 889.34 114.896C889.002 114.751 888.733 114.623 888.533 114.514L888.109 111.889L888.328 111.834C888.547 112.308 888.843 112.723 889.217 113.078C889.599 113.443 890.014 113.743 890.461 113.98C890.907 114.227 891.368 114.409 891.842 114.527C892.325 114.655 892.771 114.719 893.181 114.719ZM894.521 107.719C895.177 107.719 895.77 107.609 896.299 107.391C896.836 107.172 897.288 106.917 897.652 106.625V99.8164C897.652 99.306 897.648 98.8457 897.638 98.4355C897.629 98.0163 897.625 97.638 897.625 97.3008C897.406 96.9635 897.151 96.6673 896.859 96.4121C896.577 96.1478 896.271 95.929 895.943 95.7559C895.624 95.5736 895.296 95.4368 894.959 95.3457C894.622 95.2454 894.289 95.1953 893.961 95.1953C893.268 95.1953 892.644 95.3229 892.088 95.5781C891.532 95.8333 891.058 96.2025 890.666 96.6855C890.283 97.1595 889.987 97.7428 889.777 98.4355C889.577 99.1191 889.476 99.8984 889.476 100.773C889.476 101.758 889.586 102.674 889.804 103.521C890.023 104.369 890.342 105.107 890.761 105.736C891.19 106.356 891.719 106.844 892.347 107.199C892.976 107.546 893.701 107.719 894.521 107.719ZM913.648 99.2559C913.648 98.0527 913.407 97.1686 912.924 96.6035C912.441 96.0384 911.793 95.7559 910.982 95.7559C910.691 95.7559 910.362 95.8197 909.998 95.9473C909.633 96.0658 909.26 96.2298 908.877 96.4395C908.494 96.64 908.111 96.877 907.728 97.1504C907.345 97.4238 906.985 97.7155 906.648 98.0254L906.621 99.8164V103.125C906.621 103.9 906.63 104.579 906.648 105.162C906.666 105.736 906.694 106.233 906.73 106.652C906.767 107.072 906.808 107.423 906.853 107.705C906.899 107.988 906.949 108.225 907.004 108.416V108.471H903.845V108.416C903.9 108.225 903.95 107.988 903.996 107.705C904.051 107.423 904.092 107.072 904.119 106.652C904.155 106.233 904.183 105.736 904.201 105.162C904.228 104.579 904.242 103.9 904.242 103.125V99.8164C904.242 99.0417 904.228 98.3672 904.201 97.793C904.183 97.2096 904.155 96.7083 904.119 96.2891C904.092 95.8698 904.051 95.5189 903.996 95.2363C903.95 94.9538 903.9 94.7168 903.845 94.5254V94.4707H907.004V94.5254C906.931 94.7533 906.872 95.0449 906.826 95.4004C906.789 95.7467 906.748 96.2025 906.703 96.7676C907.077 96.4577 907.478 96.1478 907.906 95.8379C908.344 95.528 908.795 95.2546 909.26 95.0176C909.724 94.7715 910.198 94.5755 910.681 94.4297C911.164 94.2747 911.638 94.1973 912.103 94.1973C912.814 94.1973 913.416 94.3203 913.908 94.5664C914.409 94.8125 914.815 95.1361 915.125 95.5371C915.444 95.9382 915.672 96.3984 915.808 96.918C915.954 97.4284 916.027 97.9479 916.027 98.4766V103.125C916.027 103.9 916.036 104.579 916.054 105.162C916.073 105.736 916.1 106.233 916.136 106.652C916.173 107.072 916.214 107.423 916.26 107.705C916.305 107.988 916.355 108.225 916.41 108.416V108.471H913.252V108.416C913.306 108.225 913.357 107.988 913.402 107.705C913.457 107.423 913.498 107.072 913.525 106.652C913.562 106.233 913.589 105.736 913.607 105.162C913.635 104.579 913.648 103.9 913.648 103.125V99.2559Z" fill="white"/>
</svg>
