<svg width="167" height="48" viewBox="0 0 167 48" fill="none" xmlns="http://www.w3.org/2000/svg">
<g clip-path="url(#clip0_604_431)">
<path d="M1.568 25V4.868H18.368C18.984 4.868 19.544 5.02667 20.048 5.344C20.5707 5.64267 20.9813 6.044 21.28 6.548C21.5787 7.052 21.728 7.612 21.728 8.228V14.136C21.728 14.752 21.5787 15.312 21.28 15.816C20.9813 16.32 20.5707 16.7307 20.048 17.048C19.544 17.3467 18.984 17.496 18.368 17.496H3.836V25H1.568ZM4.928 15.2H18.368C18.6667 15.2 18.9187 15.0973 19.124 14.892C19.348 14.6867 19.46 14.4347 19.46 14.136V8.228C19.46 7.92933 19.348 7.67733 19.124 7.472C18.9187 7.248 18.6667 7.136 18.368 7.136H4.928C4.62933 7.136 4.368 7.248 4.144 7.472C3.93867 7.67733 3.836 7.92933 3.836 8.228V14.136C3.836 14.4347 3.93867 14.6867 4.144 14.892C4.368 15.0973 4.62933 15.2 4.928 15.2ZM31.4444 25C30.8284 25 30.2591 24.8507 29.7364 24.552C29.2324 24.2347 28.8218 23.824 28.5044 23.32C28.2058 22.7973 28.0564 22.228 28.0564 21.612V12.148C28.0564 11.532 28.2058 10.972 28.5044 10.468C28.8218 9.94533 29.2324 9.53467 29.7364 9.236C30.2591 8.91867 30.8284 8.76 31.4444 8.76H41.1884C41.8231 8.76 42.3924 8.91867 42.8964 9.236C43.4191 9.53467 43.8298 9.94533 44.1284 10.468C44.4458 10.972 44.6044 11.532 44.6044 12.148V21.612C44.6044 22.228 44.4458 22.7973 44.1284 23.32C43.8298 23.824 43.4191 24.2347 42.8964 24.552C42.3924 24.8507 41.8231 25 41.1884 25H31.4444ZM31.4444 22.704H41.1884C41.4871 22.704 41.7391 22.6013 41.9444 22.396C42.1684 22.172 42.2804 21.9107 42.2804 21.612V12.148C42.2804 11.8493 42.1684 11.5973 41.9444 11.392C41.7391 11.168 41.4871 11.056 41.1884 11.056H31.4444C31.1458 11.056 30.8844 11.168 30.6604 11.392C30.4551 11.5973 30.3524 11.8493 30.3524 12.148V21.612C30.3524 21.9107 30.4551 22.172 30.6604 22.396C30.8844 22.6013 31.1458 22.704 31.4444 22.704ZM51.6777 25V12.148C51.6777 11.532 51.8271 10.972 52.1257 10.468C52.4431 9.94533 52.8537 9.53467 53.3577 9.236C53.8804 8.91867 54.4497 8.76 55.0657 8.76H64.1937V11.056H55.0657C54.7671 11.056 54.5057 11.168 54.2817 11.392C54.0764 11.5973 53.9737 11.8493 53.9737 12.148V25H51.6777ZM73.9018 25C73.2672 25 72.6885 24.8507 72.1658 24.552C71.6618 24.2347 71.2605 23.824 70.9618 23.32C70.6632 22.7973 70.5138 22.228 70.5138 21.612V3.44H72.8098V8.76H79.8378V11.056H72.8098V21.612C72.8098 21.9107 72.9125 22.172 73.1178 22.396C73.3418 22.6013 73.6032 22.704 73.9018 22.704H79.8378V25H73.9018ZM86.4782 25V6.828C86.4782 6.19333 86.6276 5.624 86.9262 5.12C87.2249 4.59733 87.6262 4.18667 88.1302 3.888C88.6529 3.58933 89.2316 3.44 89.8662 3.44H95.8022V5.736H89.8662C89.5676 5.736 89.3062 5.848 89.0822 6.072C88.8769 6.27733 88.7742 6.52933 88.7742 6.828V8.76H95.8022V11.056H88.7742V25H86.4782ZM105.693 25C105.077 25 104.507 24.8507 103.985 24.552C103.481 24.2347 103.07 23.824 102.753 23.32C102.454 22.7973 102.305 22.228 102.305 21.612V12.148C102.305 11.532 102.454 10.972 102.753 10.468C103.07 9.94533 103.481 9.53467 103.985 9.236C104.507 8.91867 105.077 8.76 105.693 8.76H115.437C116.071 8.76 116.641 8.91867 117.145 9.236C117.667 9.53467 118.078 9.94533 118.377 10.468C118.694 10.972 118.853 11.532 118.853 12.148V21.612C118.853 22.228 118.694 22.7973 118.377 23.32C118.078 23.824 117.667 24.2347 117.145 24.552C116.641 24.8507 116.071 25 115.437 25H105.693ZM105.693 22.704H115.437C115.735 22.704 115.987 22.6013 116.193 22.396C116.417 22.172 116.529 21.9107 116.529 21.612V12.148C116.529 11.8493 116.417 11.5973 116.193 11.392C115.987 11.168 115.735 11.056 115.437 11.056H105.693C105.394 11.056 105.133 11.168 104.909 11.392C104.703 11.5973 104.601 11.8493 104.601 12.148V21.612C104.601 21.9107 104.703 22.172 104.909 22.396C105.133 22.6013 105.394 22.704 105.693 22.704ZM129.04 25C128.424 25 127.855 24.8507 127.332 24.552C126.828 24.2347 126.418 23.824 126.1 23.32C125.802 22.7973 125.652 22.228 125.652 21.612V3.44H127.948V21.612C127.948 21.9107 128.051 22.172 128.256 22.396C128.48 22.6013 128.742 22.704 129.04 22.704H131.784V25H129.04ZM138.582 25V8.76H140.878V25H138.582ZM138.582 5.736V3.44H140.878V5.736H138.582ZM152.246 25C151.63 25 151.061 24.8507 150.538 24.552C150.034 24.2347 149.623 23.824 149.306 23.32C149.007 22.7973 148.858 22.228 148.858 21.612V12.148C148.858 11.532 149.007 10.972 149.306 10.468C149.623 9.94533 150.034 9.53467 150.538 9.236C151.061 8.91867 151.63 8.76 152.246 8.76H161.99C162.625 8.76 163.194 8.91867 163.698 9.236C164.221 9.53467 164.631 9.94533 164.93 10.468C165.247 10.972 165.406 11.532 165.406 12.148V21.612C165.406 22.228 165.247 22.7973 164.93 23.32C164.631 23.824 164.221 24.2347 163.698 24.552C163.194 24.8507 162.625 25 161.99 25H152.246ZM152.246 22.704H161.99C162.289 22.704 162.541 22.6013 162.746 22.396C162.97 22.172 163.082 21.9107 163.082 21.612V12.148C163.082 11.8493 162.97 11.5973 162.746 11.392C162.541 11.168 162.289 11.056 161.99 11.056H152.246C151.947 11.056 151.686 11.168 151.462 11.392C151.257 11.5973 151.154 11.8493 151.154 12.148V21.612C151.154 21.9107 151.257 22.172 151.462 22.396C151.686 22.6013 151.947 22.704 152.246 22.704Z" fill="#333333"/>
<path d="M2.436 44C2.128 44 1.84333 43.9253 1.582 43.776C1.33 43.6267 1.12933 43.426 0.98 43.174C0.830667 42.9127 0.756 42.628 0.756 42.32V33.92H1.89V42.32C1.89 42.4693 1.94133 42.6 2.044 42.712C2.156 42.8147 2.28667 42.866 2.436 42.866H9.156C9.30533 42.866 9.43133 42.8147 9.534 42.712C9.646 42.6 9.702 42.4693 9.702 42.32V33.92H10.836V42.32C10.836 42.628 10.7613 42.9127 10.612 43.174C10.4627 43.426 10.2573 43.6267 9.996 43.776C9.744 43.9253 9.464 44 9.156 44H2.436ZM12.7977 44V33.92H13.9457V44H12.7977ZM15.2319 44V42.516L22.2179 34.032L22.3159 33.92V35.376L15.3439 43.86L15.2319 44ZM25.1647 44C24.8567 44 24.572 43.9253 24.3107 43.776C24.0587 43.6267 23.858 43.426 23.7087 43.174C23.5593 42.9127 23.4847 42.628 23.4847 42.32V33.92H24.6187V42.32C24.6187 42.4693 24.67 42.6 24.7727 42.712C24.8847 42.8147 25.0153 42.866 25.1647 42.866H31.8847C32.034 42.866 32.16 42.8147 32.2627 42.712C32.3747 42.6 32.4307 42.4693 32.4307 42.32V33.92H33.5647V42.32C33.5647 42.628 33.49 42.9127 33.3407 43.174C33.1913 43.426 32.986 43.6267 32.7247 43.776C32.4727 43.9253 32.1927 44 31.8847 44H25.1647ZM35.2464 44V43.986L39.4744 38.96L35.2464 33.934V33.92H36.7024L40.2164 38.078L43.7164 33.92H45.1724V33.934L40.9444 38.96L45.1864 43.986V44H43.7164L40.2164 39.842L36.7024 44H35.2464ZM51.1502 44V33.92H59.5502C59.8582 33.92 60.1382 33.9947 60.3902 34.144C60.6515 34.2933 60.8569 34.4987 61.0062 34.76C61.1555 35.012 61.2302 35.292 61.2302 35.6V42.32C61.2302 42.628 61.1555 42.9127 61.0062 43.174C60.8569 43.426 60.6515 43.6267 60.3902 43.776C60.1382 43.9253 59.8582 44 59.5502 44H51.1502ZM52.8302 42.866H59.5502C59.6995 42.866 59.8255 42.8147 59.9282 42.712C60.0402 42.6 60.0962 42.4693 60.0962 42.32V35.6C60.0962 35.4507 60.0402 35.3247 59.9282 35.222C59.8255 35.11 59.6995 35.054 59.5502 35.054H52.8302C52.6809 35.054 52.5502 35.11 52.4382 35.222C52.3355 35.3247 52.2842 35.4507 52.2842 35.6V42.32C52.2842 42.4693 52.3355 42.6 52.4382 42.712C52.5502 42.8147 52.6809 42.866 52.8302 42.866ZM64.702 44C64.394 44 64.1093 43.9253 63.848 43.776C63.596 43.6173 63.3907 43.412 63.232 43.16C63.0827 42.8987 63.008 42.614 63.008 42.306V37.574C63.008 37.266 63.0827 36.986 63.232 36.734C63.3907 36.4727 63.596 36.2673 63.848 36.118C64.1093 35.9593 64.394 35.88 64.702 35.88H69.574C69.8913 35.88 70.176 35.9593 70.428 36.118C70.6893 36.2673 70.8947 36.4727 71.044 36.734C71.2027 36.986 71.282 37.266 71.282 37.574V40.514H64.156V42.306C64.156 42.4553 64.2073 42.586 64.31 42.698C64.422 42.8007 64.5527 42.852 64.702 42.852H71.282V44H64.702ZM64.156 39.366H70.12V37.574C70.12 37.4247 70.064 37.2987 69.952 37.196C69.8493 37.084 69.7233 37.028 69.574 37.028H64.702C64.5527 37.028 64.422 37.084 64.31 37.196C64.2073 37.2987 64.156 37.4247 64.156 37.574V39.366ZM74.6333 44C74.3253 44 74.0407 43.9253 73.7793 43.776C73.5273 43.6173 73.322 43.412 73.1633 43.16C73.014 42.8987 72.9393 42.614 72.9393 42.306V42.194H74.0873V42.306C74.0873 42.4553 74.1387 42.586 74.2413 42.698C74.3533 42.8007 74.484 42.852 74.6333 42.852H79.5053C79.6547 42.852 79.7807 42.8007 79.8833 42.698C79.9953 42.586 80.0513 42.4553 80.0513 42.306V41.06C80.0513 40.9107 79.9953 40.7847 79.8833 40.682C79.7807 40.57 79.6547 40.514 79.5053 40.514H74.6333C74.3253 40.514 74.0407 40.4393 73.7793 40.29C73.5273 40.1313 73.322 39.926 73.1633 39.674C73.014 39.4127 72.9393 39.128 72.9393 38.82V37.574C72.9393 37.266 73.014 36.986 73.1633 36.734C73.322 36.4727 73.5273 36.2673 73.7793 36.118C74.0407 35.9593 74.3253 35.88 74.6333 35.88H79.5053C79.8227 35.88 80.1073 35.9593 80.3593 36.118C80.6207 36.2673 80.826 36.4727 80.9753 36.734C81.134 36.986 81.2133 37.266 81.2133 37.574V37.686H80.0513V37.574C80.0513 37.4247 79.9953 37.2987 79.8833 37.196C79.7807 37.084 79.6547 37.028 79.5053 37.028H74.6333C74.484 37.028 74.3533 37.084 74.2413 37.196C74.1387 37.2987 74.0873 37.4247 74.0873 37.574V38.82C74.0873 38.9693 74.1387 39.1 74.2413 39.212C74.3533 39.3147 74.484 39.366 74.6333 39.366H79.5053C79.8227 39.366 80.1073 39.4453 80.3593 39.604C80.6207 39.7533 80.826 39.9587 80.9753 40.22C81.134 40.472 81.2133 40.752 81.2133 41.06V42.306C81.2133 42.614 81.134 42.8987 80.9753 43.16C80.826 43.412 80.6207 43.6173 80.3593 43.776C80.1073 43.9253 79.8227 44 79.5053 44H74.6333ZM82.873 44V35.88H84.021V44H82.873ZM82.873 34.368V33.22H84.021V34.368H82.873ZM87.4091 47.206V46.044H92.4771C92.6264 46.044 92.7524 45.988 92.8551 45.876C92.9671 45.7733 93.0231 45.6473 93.0231 45.498V44H87.6051C87.2971 44 87.0124 43.9253 86.7511 43.776C86.4991 43.6173 86.2938 43.412 86.1351 43.16C85.9858 42.8987 85.9111 42.614 85.9111 42.306V37.574C85.9111 37.266 85.9858 36.986 86.1351 36.734C86.2938 36.4727 86.4991 36.2673 86.7511 36.118C87.0124 35.9593 87.2971 35.88 87.6051 35.88H92.4771C92.7944 35.88 93.0791 35.9593 93.3311 36.118C93.5924 36.2673 93.7978 36.4727 93.9471 36.734C94.0964 36.986 94.1711 37.266 94.1711 37.574V45.498C94.1711 45.8153 94.0964 46.1 93.9471 46.352C93.7978 46.6133 93.5924 46.8187 93.3311 46.968C93.0791 47.1267 92.7944 47.206 92.4771 47.206H87.4091ZM87.6051 42.852H92.4771C92.6264 42.852 92.7524 42.8007 92.8551 42.698C92.9671 42.586 93.0231 42.4553 93.0231 42.306V37.574C93.0231 37.4247 92.9671 37.2987 92.8551 37.196C92.7524 37.084 92.6264 37.028 92.4771 37.028H87.6051C87.4558 37.028 87.3251 37.084 87.2131 37.196C87.1104 37.2987 87.0591 37.4247 87.0591 37.574V42.306C87.0591 42.4553 87.1104 42.586 87.2131 42.698C87.3251 42.8007 87.4558 42.852 87.6051 42.852ZM95.9298 44V35.88H102.51C102.818 35.88 103.098 35.9593 103.35 36.118C103.611 36.2673 103.816 36.4727 103.966 36.734C104.124 36.986 104.204 37.266 104.204 37.574V44H103.056V37.574C103.056 37.4247 103 37.2987 102.888 37.196C102.785 37.084 102.659 37.028 102.51 37.028H97.6378C97.4884 37.028 97.3578 37.084 97.2458 37.196C97.1338 37.2987 97.0778 37.4247 97.0778 37.574V44H95.9298ZM107.61 44C107.302 44 107.017 43.9253 106.756 43.776C106.504 43.6173 106.298 43.412 106.14 43.16C105.99 42.8987 105.916 42.614 105.916 42.306V37.574C105.916 37.266 105.99 36.986 106.14 36.734C106.298 36.4727 106.504 36.2673 106.756 36.118C107.017 35.9593 107.302 35.88 107.61 35.88H112.482C112.799 35.88 113.084 35.9593 113.336 36.118C113.597 36.2673 113.802 36.4727 113.952 36.734C114.11 36.986 114.19 37.266 114.19 37.574V40.514H107.064V42.306C107.064 42.4553 107.115 42.586 107.218 42.698C107.33 42.8007 107.46 42.852 107.61 42.852H114.19V44H107.61ZM107.064 39.366H113.028V37.574C113.028 37.4247 112.972 37.2987 112.86 37.196C112.757 37.084 112.631 37.028 112.482 37.028H107.61C107.46 37.028 107.33 37.084 107.218 37.196C107.115 37.2987 107.064 37.4247 107.064 37.574V39.366ZM115.835 44V37.574C115.835 37.266 115.909 36.986 116.059 36.734C116.217 36.4727 116.423 36.2673 116.675 36.118C116.936 35.9593 117.221 35.88 117.529 35.88H122.093V37.028H117.529C117.379 37.028 117.249 37.084 117.137 37.196C117.034 37.2987 116.983 37.4247 116.983 37.574V44H115.835Z" fill="#707070"/>
</g>
<defs>
<clipPath id="clip0_604_431">
<rect width="167" height="48" fill="white"/>
</clipPath>
</defs>
</svg>
