<svg width="176" height="49" viewBox="0 0 176 49" fill="none" xmlns="http://www.w3.org/2000/svg">
<g clip-path="url(#clip0_453_294)">
<path d="M1.568 25V4.868H18.368C18.984 4.868 19.544 5.02667 20.048 5.344C20.5707 5.64267 20.9813 6.044 21.28 6.548C21.5787 7.052 21.728 7.612 21.728 8.228V14.136C21.728 14.752 21.5787 15.312 21.28 15.816C20.9813 16.32 20.5707 16.7307 20.048 17.048C19.544 17.3467 18.984 17.496 18.368 17.496H3.836V25H1.568ZM4.928 15.2H18.368C18.6667 15.2 18.9187 15.0973 19.124 14.892C19.348 14.6867 19.46 14.4347 19.46 14.136V8.228C19.46 7.92933 19.348 7.67733 19.124 7.472C18.9187 7.248 18.6667 7.136 18.368 7.136H4.928C4.62933 7.136 4.368 7.248 4.144 7.472C3.93867 7.67733 3.836 7.92933 3.836 8.228V14.136C3.836 14.4347 3.93867 14.6867 4.144 14.892C4.368 15.0973 4.62933 15.2 4.928 15.2ZM32.5644 25C31.9484 25 31.3791 24.8507 30.8564 24.552C30.3524 24.2347 29.9418 23.824 29.6244 23.32C29.3258 22.7973 29.1764 22.228 29.1764 21.612V12.148C29.1764 11.532 29.3258 10.972 29.6244 10.468C29.9418 9.94533 30.3524 9.53467 30.8564 9.236C31.3791 8.91867 31.9484 8.76 32.5644 8.76H42.3084C42.9431 8.76 43.5124 8.91867 44.0164 9.236C44.5391 9.53467 44.9498 9.94533 45.2484 10.468C45.5658 10.972 45.7244 11.532 45.7244 12.148V21.612C45.7244 22.228 45.5658 22.7973 45.2484 23.32C44.9498 23.824 44.5391 24.2347 44.0164 24.552C43.5124 24.8507 42.9431 25 42.3084 25H32.5644ZM32.5644 22.704H42.3084C42.6071 22.704 42.8591 22.6013 43.0644 22.396C43.2884 22.172 43.4004 21.9107 43.4004 21.612V12.148C43.4004 11.8493 43.2884 11.5973 43.0644 11.392C42.8591 11.168 42.6071 11.056 42.3084 11.056H32.5644C32.2658 11.056 32.0044 11.168 31.7804 11.392C31.5751 11.5973 31.4724 11.8493 31.4724 12.148V21.612C31.4724 21.9107 31.5751 22.172 31.7804 22.396C32.0044 22.6013 32.2658 22.704 32.5644 22.704ZM53.9177 25V12.148C53.9177 11.532 54.0671 10.972 54.3657 10.468C54.6831 9.94533 55.0937 9.53467 55.5977 9.236C56.1204 8.91867 56.6897 8.76 57.3057 8.76H66.4337V11.056H57.3057C57.0071 11.056 56.7457 11.168 56.5217 11.392C56.3164 11.5973 56.2137 11.8493 56.2137 12.148V25H53.9177ZM77.2618 25C76.6272 25 76.0485 24.8507 75.5258 24.552C75.0218 24.2347 74.6205 23.824 74.3218 23.32C74.0232 22.7973 73.8738 22.228 73.8738 21.612V3.44H76.1698V8.76H83.1978V11.056H76.1698V21.612C76.1698 21.9107 76.2725 22.172 76.4778 22.396C76.7018 22.6013 76.9632 22.704 77.2618 22.704H83.1978V25H77.2618ZM90.9582 25V6.828C90.9582 6.19333 91.1076 5.624 91.4062 5.12C91.7049 4.59733 92.1062 4.18667 92.6102 3.888C93.1329 3.58933 93.7116 3.44 94.3462 3.44H100.282V5.736H94.3462C94.0476 5.736 93.7862 5.848 93.5622 6.072C93.3569 6.27733 93.2542 6.52933 93.2542 6.828V8.76H100.282V11.056H93.2542V25H90.9582ZM111.293 25C110.677 25 110.107 24.8507 109.585 24.552C109.081 24.2347 108.67 23.824 108.353 23.32C108.054 22.7973 107.905 22.228 107.905 21.612V12.148C107.905 11.532 108.054 10.972 108.353 10.468C108.67 9.94533 109.081 9.53467 109.585 9.236C110.107 8.91867 110.677 8.76 111.293 8.76H121.037C121.671 8.76 122.241 8.91867 122.745 9.236C123.267 9.53467 123.678 9.94533 123.977 10.468C124.294 10.972 124.453 11.532 124.453 12.148V21.612C124.453 22.228 124.294 22.7973 123.977 23.32C123.678 23.824 123.267 24.2347 122.745 24.552C122.241 24.8507 121.671 25 121.037 25H111.293ZM111.293 22.704H121.037C121.335 22.704 121.587 22.6013 121.793 22.396C122.017 22.172 122.129 21.9107 122.129 21.612V12.148C122.129 11.8493 122.017 11.5973 121.793 11.392C121.587 11.168 121.335 11.056 121.037 11.056H111.293C110.994 11.056 110.733 11.168 110.509 11.392C110.303 11.5973 110.201 11.8493 110.201 12.148V21.612C110.201 21.9107 110.303 22.172 110.509 22.396C110.733 22.6013 110.994 22.704 111.293 22.704ZM135.76 25C135.144 25 134.575 24.8507 134.052 24.552C133.548 24.2347 133.138 23.824 132.82 23.32C132.522 22.7973 132.372 22.228 132.372 21.612V3.44H134.668V21.612C134.668 21.9107 134.771 22.172 134.976 22.396C135.2 22.6013 135.462 22.704 135.76 22.704H138.504V25H135.76ZM146.422 25V8.76H148.718V25H146.422ZM146.422 5.736V3.44H148.718V5.736H146.422ZM161.206 25C160.59 25 160.021 24.8507 159.498 24.552C158.994 24.2347 158.583 23.824 158.266 23.32C157.967 22.7973 157.818 22.228 157.818 21.612V12.148C157.818 11.532 157.967 10.972 158.266 10.468C158.583 9.94533 158.994 9.53467 159.498 9.236C160.021 8.91867 160.59 8.76 161.206 8.76H170.95C171.585 8.76 172.154 8.91867 172.658 9.236C173.181 9.53467 173.591 9.94533 173.89 10.468C174.207 10.972 174.366 11.532 174.366 12.148V21.612C174.366 22.228 174.207 22.7973 173.89 23.32C173.591 23.824 173.181 24.2347 172.658 24.552C172.154 24.8507 171.585 25 170.95 25H161.206ZM161.206 22.704H170.95C171.249 22.704 171.501 22.6013 171.706 22.396C171.93 22.172 172.042 21.9107 172.042 21.612V12.148C172.042 11.8493 171.93 11.5973 171.706 11.392C171.501 11.168 171.249 11.056 170.95 11.056H161.206C160.907 11.056 160.646 11.168 160.422 11.392C160.217 11.5973 160.114 11.8493 160.114 12.148V21.612C160.114 21.9107 160.217 22.172 160.422 22.396C160.646 22.6013 160.907 22.704 161.206 22.704Z" fill="#1A1A1A"/>
<path d="M2.436 44C2.128 44 1.84333 43.9253 1.582 43.776C1.33 43.6267 1.12933 43.426 0.98 43.174C0.830667 42.9127 0.756 42.628 0.756 42.32V33.92H1.89V42.32C1.89 42.4693 1.94133 42.6 2.044 42.712C2.156 42.8147 2.28667 42.866 2.436 42.866H9.156C9.30533 42.866 9.43133 42.8147 9.534 42.712C9.646 42.6 9.702 42.4693 9.702 42.32V33.92H10.836V42.32C10.836 42.628 10.7613 42.9127 10.612 43.174C10.4627 43.426 10.2573 43.6267 9.996 43.776C9.744 43.9253 9.464 44 9.156 44H2.436ZM13.6377 44V33.92H14.7857V44H13.6377ZM16.9119 44V42.516L23.8979 34.032L23.9959 33.92V35.376L17.0239 43.86L16.9119 44ZM27.6847 44C27.3767 44 27.092 43.9253 26.8307 43.776C26.5787 43.6267 26.378 43.426 26.2287 43.174C26.0793 42.9127 26.0047 42.628 26.0047 42.32V33.92H27.1387V42.32C27.1387 42.4693 27.19 42.6 27.2927 42.712C27.4047 42.8147 27.5353 42.866 27.6847 42.866H34.4047C34.554 42.866 34.68 42.8147 34.7827 42.712C34.8947 42.6 34.9507 42.4693 34.9507 42.32V33.92H36.0847V42.32C36.0847 42.628 36.01 42.9127 35.8607 43.174C35.7113 43.426 35.506 43.6267 35.2447 43.776C34.9927 43.9253 34.7127 44 34.4047 44H27.6847ZM38.6064 44V43.986L42.8344 38.96L38.6064 33.934V33.92H40.0624L43.5764 38.078L47.0764 33.92H48.5324V33.934L44.3044 38.96L48.5464 43.986V44H47.0764L43.5764 39.842L40.0624 44H38.6064ZM56.1902 44V33.92H64.5902C64.8982 33.92 65.1782 33.9947 65.4302 34.144C65.6915 34.2933 65.8969 34.4987 66.0462 34.76C66.1955 35.012 66.2702 35.292 66.2702 35.6V42.32C66.2702 42.628 66.1955 42.9127 66.0462 43.174C65.8969 43.426 65.6915 43.6267 65.4302 43.776C65.1782 43.9253 64.8982 44 64.5902 44H56.1902ZM57.8702 42.866H64.5902C64.7395 42.866 64.8655 42.8147 64.9682 42.712C65.0802 42.6 65.1362 42.4693 65.1362 42.32V35.6C65.1362 35.4507 65.0802 35.3247 64.9682 35.222C64.8655 35.11 64.7395 35.054 64.5902 35.054H57.8702C57.7209 35.054 57.5902 35.11 57.4782 35.222C57.3755 35.3247 57.3242 35.4507 57.3242 35.6V42.32C57.3242 42.4693 57.3755 42.6 57.4782 42.712C57.5902 42.8147 57.7209 42.866 57.8702 42.866ZM70.582 44C70.274 44 69.9893 43.9253 69.728 43.776C69.476 43.6173 69.2706 43.412 69.112 43.16C68.9626 42.8987 68.888 42.614 68.888 42.306V37.574C68.888 37.266 68.9626 36.986 69.112 36.734C69.2706 36.4727 69.476 36.2673 69.728 36.118C69.9893 35.9593 70.274 35.88 70.582 35.88H75.454C75.7713 35.88 76.056 35.9593 76.308 36.118C76.5693 36.2673 76.7746 36.4727 76.924 36.734C77.0826 36.986 77.162 37.266 77.162 37.574V40.514H70.036V42.306C70.036 42.4553 70.0873 42.586 70.19 42.698C70.302 42.8007 70.4326 42.852 70.582 42.852H77.162V44H70.582ZM70.036 39.366H76V37.574C76 37.4247 75.944 37.2987 75.832 37.196C75.7293 37.084 75.6033 37.028 75.454 37.028H70.582C70.4326 37.028 70.302 37.084 70.19 37.196C70.0873 37.2987 70.036 37.4247 70.036 37.574V39.366ZM81.3533 44C81.0453 44 80.7607 43.9253 80.4993 43.776C80.2473 43.6173 80.042 43.412 79.8833 43.16C79.734 42.8987 79.6593 42.614 79.6593 42.306V42.194H80.8073V42.306C80.8073 42.4553 80.8587 42.586 80.9613 42.698C81.0733 42.8007 81.204 42.852 81.3533 42.852H86.2253C86.3747 42.852 86.5007 42.8007 86.6033 42.698C86.7153 42.586 86.7713 42.4553 86.7713 42.306V41.06C86.7713 40.9107 86.7153 40.7847 86.6033 40.682C86.5007 40.57 86.3747 40.514 86.2253 40.514H81.3533C81.0453 40.514 80.7607 40.4393 80.4993 40.29C80.2473 40.1313 80.042 39.926 79.8833 39.674C79.734 39.4127 79.6593 39.128 79.6593 38.82V37.574C79.6593 37.266 79.734 36.986 79.8833 36.734C80.042 36.4727 80.2473 36.2673 80.4993 36.118C80.7607 35.9593 81.0453 35.88 81.3533 35.88H86.2253C86.5427 35.88 86.8273 35.9593 87.0793 36.118C87.3407 36.2673 87.546 36.4727 87.6953 36.734C87.854 36.986 87.9333 37.266 87.9333 37.574V37.686H86.7713V37.574C86.7713 37.4247 86.7153 37.2987 86.6033 37.196C86.5007 37.084 86.3747 37.028 86.2253 37.028H81.3533C81.204 37.028 81.0733 37.084 80.9613 37.196C80.8587 37.2987 80.8073 37.4247 80.8073 37.574V38.82C80.8073 38.9693 80.8587 39.1 80.9613 39.212C81.0733 39.3147 81.204 39.366 81.3533 39.366H86.2253C86.5427 39.366 86.8273 39.4453 87.0793 39.604C87.3407 39.7533 87.546 39.9587 87.6953 40.22C87.854 40.472 87.9333 40.752 87.9333 41.06V42.306C87.9333 42.614 87.854 42.8987 87.6953 43.16C87.546 43.412 87.3407 43.6173 87.0793 43.776C86.8273 43.9253 86.5427 44 86.2253 44H81.3533ZM90.433 44V35.88H91.581V44H90.433ZM90.433 34.368V33.22H91.581V34.368H90.433ZM95.8091 47.206V46.044H100.877C101.026 46.044 101.152 45.988 101.255 45.876C101.367 45.7733 101.423 45.6473 101.423 45.498V44H96.0051C95.6971 44 95.4124 43.9253 95.1511 43.776C94.8991 43.6173 94.6938 43.412 94.5351 43.16C94.3858 42.8987 94.3111 42.614 94.3111 42.306V37.574C94.3111 37.266 94.3858 36.986 94.5351 36.734C94.6938 36.4727 94.8991 36.2673 95.1511 36.118C95.4124 35.9593 95.6971 35.88 96.0051 35.88H100.877C101.194 35.88 101.479 35.9593 101.731 36.118C101.992 36.2673 102.198 36.4727 102.347 36.734C102.496 36.986 102.571 37.266 102.571 37.574V45.498C102.571 45.8153 102.496 46.1 102.347 46.352C102.198 46.6133 101.992 46.8187 101.731 46.968C101.479 47.1267 101.194 47.206 100.877 47.206H95.8091ZM96.0051 42.852H100.877C101.026 42.852 101.152 42.8007 101.255 42.698C101.367 42.586 101.423 42.4553 101.423 42.306V37.574C101.423 37.4247 101.367 37.2987 101.255 37.196C101.152 37.084 101.026 37.028 100.877 37.028H96.0051C95.8558 37.028 95.7251 37.084 95.6131 37.196C95.5104 37.2987 95.4591 37.4247 95.4591 37.574V42.306C95.4591 42.4553 95.5104 42.586 95.6131 42.698C95.7251 42.8007 95.8558 42.852 96.0051 42.852ZM105.17 44V35.88H111.75C112.058 35.88 112.338 35.9593 112.59 36.118C112.851 36.2673 113.056 36.4727 113.206 36.734C113.364 36.986 113.444 37.266 113.444 37.574V44H112.296V37.574C112.296 37.4247 112.24 37.2987 112.128 37.196C112.025 37.084 111.899 37.028 111.75 37.028H106.878C106.728 37.028 106.598 37.084 106.486 37.196C106.374 37.2987 106.318 37.4247 106.318 37.574V44H105.17ZM117.69 44C117.382 44 117.097 43.9253 116.836 43.776C116.584 43.6173 116.378 43.412 116.22 43.16C116.07 42.8987 115.996 42.614 115.996 42.306V37.574C115.996 37.266 116.07 36.986 116.22 36.734C116.378 36.4727 116.584 36.2673 116.836 36.118C117.097 35.9593 117.382 35.88 117.69 35.88H122.562C122.879 35.88 123.164 35.9593 123.416 36.118C123.677 36.2673 123.882 36.4727 124.032 36.734C124.19 36.986 124.27 37.266 124.27 37.574V40.514H117.144V42.306C117.144 42.4553 117.195 42.586 117.298 42.698C117.41 42.8007 117.54 42.852 117.69 42.852H124.27V44H117.69ZM117.144 39.366H123.108V37.574C123.108 37.4247 123.052 37.2987 122.94 37.196C122.837 37.084 122.711 37.028 122.562 37.028H117.69C117.54 37.028 117.41 37.084 117.298 37.196C117.195 37.2987 117.144 37.4247 117.144 37.574V39.366ZM126.755 44V37.574C126.755 37.266 126.829 36.986 126.979 36.734C127.137 36.4727 127.343 36.2673 127.595 36.118C127.856 35.9593 128.141 35.88 128.449 35.88H133.013V37.028H128.449C128.299 37.028 128.169 37.084 128.057 37.196C127.954 37.2987 127.903 37.4247 127.903 37.574V44H126.755Z" fill="#808080"/>
</g>
<defs>
<clipPath id="clip0_453_294">
<rect width="176" height="49" fill="white"/>
</clipPath>
</defs>
</svg>
