<svg width="167" height="48" viewBox="0 0 167 48" fill="none" xmlns="http://www.w3.org/2000/svg">
<g clip-path="url(#clip0_604_431)">
<path d="M1.568 25V4.868H18.368C18.984 4.868 19.544 5.02667 20.048 5.344C20.5707 5.64267 20.9813 6.044 21.28 6.548C21.5787 7.052 21.728 7.612 21.728 8.228V14.136C21.728 14.752 21.5787 15.312 21.28 15.816C20.9813 16.32 20.5707 16.7307 20.048 17.048C19.544 17.3467 18.984 17.496 18.368 17.496H3.836V25H1.568ZM4.928 15.2H18.368C18.6667 15.2 18.9187 15.0973 19.124 14.892C19.348 14.6867 19.46 14.4347 19.46 14.136V8.228C19.46 7.92933 19.348 7.67733 19.124 7.472C18.9187 7.248 18.6667 7.136 18.368 7.136H4.928C4.62933 7.136 4.368 7.248 4.144 7.472C3.93867 7.67733 3.836 7.92933 3.836 8.228V14.136C3.836 14.4347 3.93867 14.6867 4.144 14.892C4.368 15.0973 4.62933 15.2 4.928 15.2ZM31.4444 25C30.8284 25 30.2591 24.8507 29.7364 24.552C29.2324 24.2347 28.8218 23.824 28.5044 23.32C28.2058 22.7973 28.0564 22.228 28.0564 21.612V12.148C28.0564 11.532 28.2058 10.972 28.5044 10.468C28.8218 9.94533 29.2324 9.53467 29.7364 9.236C30.2591 8.91867 30.8284 8.76 31.4444 8.76H41.1884C41.8231 8.76 42.3924 8.91867 42.8964 9.236C43.4191 9.53467 43.8298 9.94533 44.1284 10.468C44.4458 10.972 44.6044 11.532 44.6044 12.148V21.612C44.6044 22.228 44.4458 22.7973 44.1284 23.32C43.8298 23.824 43.4191 24.2347 42.8964 24.552C42.3924 24.8507 41.8231 25 41.1884 25H31.4444ZM31.4444 22.704H41.1884C41.4871 22.704 41.7391 22.6013 41.9444 22.396C42.1684 22.172 42.2804 21.9107 42.2804 21.612V12.148C42.2804 11.8493 42.1684 11.5973 41.9444 11.392C41.7391 11.168 41.4871 11.056 41.1884 11.056H31.4444C31.1458 11.056 30.8844 11.168 30.6604 11.392C30.4551 11.5973 30.3524 11.8493 30.3524 12.148V21.612C30.3524 21.9107 30.4551 22.172 30.6604 22.396C30.8844 22.6013 31.1458 22.704 31.4444 22.704ZM51.6777 25V12.148C51.6777 11.532 51.8271 10.972 52.1257 10.468C52.4431 9.94533 52.8537 9.53467 53.3577 9.236C53.8804 8.91867 54.4497 8.76 55.0657 8.76H64.1937V11.056H55.0657C54.7671 11.056 54.5057 11.168 54.2817 11.392C54.0764 11.5973 53.9737 11.8493 53.9737 12.148V25H51.6777ZM73.9018 25C73.2672 25 72.6885 24.8507 72.1658 24.552C71.6618 24.2347 71.2605 23.824 70.9618 23.32C70.6632 22.7973 70.5138 22.228 70.5138 21.612V3.44H72.8098V8.76H79.8378V11.056H72.8098V21.612C72.8098 21.9107 72.9125 22.172 73.1178 22.396C73.3418 22.6013 73.6032 22.704 73.9018 22.704H79.8378V25H73.9018ZM86.4782 25V6.828C86.4782 6.19333 86.6276 5.624 86.9262 5.12C87.2249 4.59733 87.6262 4.18667 88.1302 3.888C88.6529 3.58933 89.2316 3.44 89.8662 3.44H95.8022V5.736H89.8662C89.5676 5.736 89.3062 5.848 89.0822 6.072C88.8769 6.27733 88.7742 6.52933 88.7742 6.828V8.76H95.8022V11.056H88.7742V25H86.4782ZM105.693 25C105.077 25 104.507 24.8507 103.985 24.552C103.481 24.2347 103.07 23.824 102.753 23.32C102.454 22.7973 102.305 22.228 102.305 21.612V12.148C102.305 11.532 102.454 10.972 102.753 10.468C103.07 9.94533 103.481 9.53467 103.985 9.236C104.507 8.91867 105.077 8.76 105.693 8.76H115.437C116.071 8.76 116.641 8.91867 117.145 9.236C117.667 9.53467 118.078 9.94533 118.377 10.468C118.694 10.972 118.853 11.532 118.853 12.148V21.612C118.853 22.228 118.694 22.7973 118.377 23.32C118.078 23.824 117.667 24.2347 117.145 24.552C116.641 24.8507 116.071 25 115.437 25H105.693ZM105.693 22.704H115.437C115.735 22.704 115.987 22.6013 116.193 22.396C116.417 22.172 116.529 21.9107 116.529 21.612V12.148C116.529 11.8493 116.417 11.5973 116.193 11.392C115.987 11.168 115.735 11.056 115.437 11.056H105.693C105.394 11.056 105.133 11.168 104.909 11.392C104.703 11.5973 104.601 11.8493 104.601 12.148V21.612C104.601 21.9107 104.703 22.172 104.909 22.396C105.133 22.6013 105.394 22.704 105.693 22.704ZM129.04 25C128.424 25 127.855 24.8507 127.332 24.552C126.828 24.2347 126.418 23.824 126.1 23.32C125.802 22.7973 125.652 22.228 125.652 21.612V3.44H127.948V21.612C127.948 21.9107 128.051 22.172 128.256 22.396C128.48 22.6013 128.742 22.704 129.04 22.704H131.784V25H129.04ZM138.582 25V8.76H140.878V25H138.582ZM138.582 5.736V3.44H140.878V5.736H138.582ZM152.246 25C151.63 25 151.061 24.8507 150.538 24.552C150.034 24.2347 149.623 23.824 149.306 23.32C149.007 22.7973 148.858 22.228 148.858 21.612V12.148C148.858 11.532 149.007 10.972 149.306 10.468C149.623 9.94533 150.034 9.53467 150.538 9.236C151.061 8.91867 151.63 8.76 152.246 8.76H161.99C162.625 8.76 163.194 8.91867 163.698 9.236C164.221 9.53467 164.631 9.94533 164.93 10.468C165.247 10.972 165.406 11.532 165.406 12.148V21.612C165.406 22.228 165.247 22.7973 164.93 23.32C164.631 23.824 164.221 24.2347 163.698 24.552C163.194 24.8507 162.625 25 161.99 25H152.246ZM152.246 22.704H161.99C162.289 22.704 162.541 22.6013 162.746 22.396C162.97 22.172 163.082 21.9107 163.082 21.612V12.148C163.082 11.8493 162.97 11.5973 162.746 11.392C162.541 11.168 162.289 11.056 161.99 11.056H152.246C151.947 11.056 151.686 11.168 151.462 11.392C151.257 11.5973 151.154 11.8493 151.154 12.148V21.612C151.154 21.9107 151.257 22.172 151.462 22.396C151.686 22.6013 151.947 22.704 152.246 22.704Z" fill="#333333"/>
<path d="M2.436 44C2.128 44 1.84333 43.9253 1.582 43.776C1.33 43.6267 1.12933 43.426 0.98 43.174C0.830667 42.9127 0.756 42.628 0.756 42.32V33.92H1.89V42.32C1.89 42.4693 1.94133 42.6 2.044 42.712C2.156 42.8147 2.28667 42.866 2.436 42.866H9.156C9.30533 42.866 9.43133 42.8147 9.534 42.712C9.646 42.6 9.702 42.4693 9.702 42.32V33.92H10.836V42.32C10.836 42.628 10.7613 42.9127 10.612 43.174C10.4627 43.426 10.2573 43.6267 9.996 43.776C9.744 43.9253 9.464 44 9.156 44H2.436ZM12.7977 44V33.92H13.9457V44H12.7977ZM20.0543 44V33.92H28.4543C28.7623 33.92 29.0423 33.9947 29.2943 34.144C29.5557 34.2933 29.761 34.4987 29.9103 34.76C30.0597 35.012 30.1343 35.292 30.1343 35.6V42.32C30.1343 42.628 30.0597 42.9127 29.9103 43.174C29.761 43.426 29.5557 43.6267 29.2943 43.776C29.0423 43.9253 28.7623 44 28.4543 44H20.0543ZM21.7343 42.866H28.4543C28.6037 42.866 28.7297 42.8147 28.8323 42.712C28.9443 42.6 29.0003 42.4693 29.0003 42.32V35.6C29.0003 35.4507 28.9443 35.3247 28.8323 35.222C28.7297 35.11 28.6037 35.054 28.4543 35.054H21.7343C21.585 35.054 21.4543 35.11 21.3423 35.222C21.2397 35.3247 21.1883 35.4507 21.1883 35.6V42.32C21.1883 42.4693 21.2397 42.6 21.3423 42.712C21.4543 42.8147 21.585 42.866 21.7343 42.866ZM33.6061 44C33.2981 44 33.0135 43.9253 32.7521 43.776C32.5001 43.6173 32.2948 43.412 32.1361 43.16C31.9868 42.8987 31.9121 42.614 31.9121 42.306V37.574C31.9121 37.266 31.9868 36.986 32.1361 36.734C32.2948 36.4727 32.5001 36.2673 32.7521 36.118C33.0135 35.9593 33.2981 35.88 33.6061 35.88H38.4781C38.7955 35.88 39.0801 35.9593 39.3321 36.118C39.5935 36.2673 39.7988 36.4727 39.9481 36.734C40.1068 36.986 40.1861 37.266 40.1861 37.574V40.514H33.0601V42.306C33.0601 42.4553 33.1115 42.586 33.2141 42.698C33.3261 42.8007 33.4568 42.852 33.6061 42.852H40.1861V44H33.6061ZM33.0601 39.366H39.0241V37.574C39.0241 37.4247 38.9681 37.2987 38.8561 37.196C38.7535 37.084 38.6275 37.028 38.4781 37.028H33.6061C33.4568 37.028 33.3261 37.084 33.2141 37.196C33.1115 37.2987 33.0601 37.4247 33.0601 37.574V39.366ZM43.5375 44C43.2295 44 42.9448 43.9253 42.6835 43.776C42.4315 43.6173 42.2262 43.412 42.0675 43.16C41.9182 42.8987 41.8435 42.614 41.8435 42.306V42.194H42.9915V42.306C42.9915 42.4553 43.0428 42.586 43.1455 42.698C43.2575 42.8007 43.3882 42.852 43.5375 42.852H48.4095C48.5588 42.852 48.6848 42.8007 48.7875 42.698C48.8995 42.586 48.9555 42.4553 48.9555 42.306V41.06C48.9555 40.9107 48.8995 40.7847 48.7875 40.682C48.6848 40.57 48.5588 40.514 48.4095 40.514H43.5375C43.2295 40.514 42.9448 40.4393 42.6835 40.29C42.4315 40.1313 42.2262 39.926 42.0675 39.674C41.9182 39.4127 41.8435 39.128 41.8435 38.82V37.574C41.8435 37.266 41.9182 36.986 42.0675 36.734C42.2262 36.4727 42.4315 36.2673 42.6835 36.118C42.9448 35.9593 43.2295 35.88 43.5375 35.88H48.4095C48.7268 35.88 49.0115 35.9593 49.2635 36.118C49.5248 36.2673 49.7302 36.4727 49.8795 36.734C50.0382 36.986 50.1175 37.266 50.1175 37.574V37.686H48.9555V37.574C48.9555 37.4247 48.8995 37.2987 48.7875 37.196C48.6848 37.084 48.5588 37.028 48.4095 37.028H43.5375C43.3882 37.028 43.2575 37.084 43.1455 37.196C43.0428 37.2987 42.9915 37.4247 42.9915 37.574V38.82C42.9915 38.9693 43.0428 39.1 43.1455 39.212C43.2575 39.3147 43.3882 39.366 43.5375 39.366H48.4095C48.7268 39.366 49.0115 39.4453 49.2635 39.604C49.5248 39.7533 49.7302 39.9587 49.8795 40.22C50.0382 40.472 50.1175 40.752 50.1175 41.06V42.306C50.1175 42.614 50.0382 42.8987 49.8795 43.16C49.7302 43.412 49.5248 43.6173 49.2635 43.776C49.0115 43.9253 48.7268 44 48.4095 44H43.5375ZM51.7771 44V35.88H52.9251V44H51.7771ZM51.7771 34.368V33.22H52.9251V34.368H51.7771ZM56.3132 47.206V46.044H61.3812C61.5306 46.044 61.6566 45.988 61.7592 45.876C61.8712 45.7733 61.9272 45.6473 61.9272 45.498V44H56.5092C56.2012 44 55.9166 43.9253 55.6552 43.776C55.4032 43.6173 55.1979 43.412 55.0392 43.16C54.8899 42.8987 54.8152 42.614 54.8152 42.306V37.574C54.8152 37.266 54.8899 36.986 55.0392 36.734C55.1979 36.4727 55.4032 36.2673 55.6552 36.118C55.9166 35.9593 56.2012 35.88 56.5092 35.88H61.3812C61.6986 35.88 61.9832 35.9593 62.2352 36.118C62.4966 36.2673 62.7019 36.4727 62.8512 36.734C63.0006 36.986 63.0752 37.266 63.0752 37.574V45.498C63.0752 45.8153 63.0006 46.1 62.8512 46.352C62.7019 46.6133 62.4966 46.8187 62.2352 46.968C61.9832 47.1267 61.6986 47.206 61.3812 47.206H56.3132ZM56.5092 42.852H61.3812C61.5306 42.852 61.6566 42.8007 61.7592 42.698C61.8712 42.586 61.9272 42.4553 61.9272 42.306V37.574C61.9272 37.4247 61.8712 37.2987 61.7592 37.196C61.6566 37.084 61.5306 37.028 61.3812 37.028H56.5092C56.3599 37.028 56.2292 37.084 56.1172 37.196C56.0146 37.2987 55.9632 37.4247 55.9632 37.574V42.306C55.9632 42.4553 56.0146 42.586 56.1172 42.698C56.2292 42.8007 56.3599 42.852 56.5092 42.852ZM64.8339 44V35.88H71.4139C71.7219 35.88 72.0019 35.9593 72.2539 36.118C72.5152 36.2673 72.7206 36.4727 72.8699 36.734C73.0286 36.986 73.1079 37.266 73.1079 37.574V44H71.9599V37.574C71.9599 37.4247 71.9039 37.2987 71.7919 37.196C71.6892 37.084 71.5632 37.028 71.4139 37.028H66.5419C66.3926 37.028 66.2619 37.084 66.1499 37.196C66.0379 37.2987 65.9819 37.4247 65.9819 37.574V44H64.8339ZM76.5139 44C76.2059 44 75.9213 43.9253 75.6599 43.776C75.4079 43.6173 75.2026 43.412 75.0439 43.16C74.8946 42.8987 74.8199 42.614 74.8199 42.306V37.574C74.8199 37.266 74.8946 36.986 75.0439 36.734C75.2026 36.4727 75.4079 36.2673 75.6599 36.118C75.9213 35.9593 76.2059 35.88 76.5139 35.88H81.3859C81.7033 35.88 81.9879 35.9593 82.2399 36.118C82.5013 36.2673 82.7066 36.4727 82.8559 36.734C83.0146 36.986 83.0939 37.266 83.0939 37.574V40.514H75.9679V42.306C75.9679 42.4553 76.0193 42.586 76.1219 42.698C76.2339 42.8007 76.3646 42.852 76.5139 42.852H83.0939V44H76.5139ZM75.9679 39.366H81.9319V37.574C81.9319 37.4247 81.8759 37.2987 81.7639 37.196C81.6613 37.084 81.5353 37.028 81.3859 37.028H76.5139C76.3646 37.028 76.2339 37.084 76.1219 37.196C76.0193 37.2987 75.9679 37.4247 75.9679 37.574V39.366ZM84.7389 44V37.574C84.7389 37.266 84.8136 36.986 84.9629 36.734C85.1216 36.4727 85.3269 36.2673 85.5789 36.118C85.8403 35.9593 86.1249 35.88 86.4329 35.88H90.9969V37.028H86.4329C86.2836 37.028 86.1529 37.084 86.0409 37.196C85.9383 37.2987 85.8869 37.4247 85.8869 37.574V44H84.7389Z" fill="#707070"/>
</g>
<defs>
<clipPath id="clip0_604_431">
<rect width="167" height="48" fill="white"/>
</clipPath>
</defs>
</svg>
