<svg width="1140" height="202" viewBox="0 0 1140 202" fill="none" xmlns="http://www.w3.org/2000/svg">
<rect x="0.5" y="0.5" width="1139" height="201" stroke="#E0E0E0"/>
<rect width="569" height="200" transform="translate(1 1)" fill="white"/>
<path d="M177.92 87V90.52H170.84C168.147 90.52 166.8 91.6133 166.8 93.8C166.8 94.9733 167.387 95.9733 168.56 96.8C169.76 97.6 171.373 98.3733 173.4 99.12C174.307 99.4667 175.08 99.8267 175.72 100.2C176.36 100.547 177 101.013 177.64 101.6C178.28 102.187 178.76 102.947 179.08 103.88C179.4 104.787 179.56 105.84 179.56 107.04C179.56 108.373 179.28 109.573 178.72 110.64C178.16 111.68 177.44 112.507 176.56 113.12C175.68 113.707 174.773 114.16 173.84 114.48C172.933 114.773 172.04 114.933 171.16 114.96C170.787 114.987 170.253 115 169.56 115H163.32V111.48H169.44C171.253 111.48 172.733 111.107 173.88 110.36C175.027 109.587 175.6 108.467 175.6 107C175.6 106.28 175.44 105.653 175.12 105.12C174.8 104.56 174.333 104.08 173.72 103.68C173.133 103.28 172.52 102.933 171.88 102.64C171.267 102.347 170.52 102.04 169.64 101.72C169.4 101.64 169.213 101.573 169.08 101.52C164.893 99.92 162.8 97.3067 162.8 93.68C162.8 91.44 163.52 89.7733 164.96 88.68C166.4 87.56 168.28 87 170.6 87H177.92ZM186.956 95.8H204.596C206.49 95.8 207.996 96.16 209.116 96.88C210.263 97.6 211.01 98.5333 211.356 99.68C211.73 100.827 211.916 102.2 211.916 103.8V115H208.396V103.8C208.396 101.72 207.77 100.347 206.516 99.68C205.876 99.3333 204.583 99.16 202.636 99.16H200.996V115H197.476V99.16H190.476V115H186.956V95.8ZM230.597 103.72V107.32C229.584 106.547 228.344 106.16 226.877 106.16C225.624 106.16 224.651 106.413 223.957 106.92C223.264 107.4 222.917 108.093 222.917 109C222.917 110.76 224.224 111.64 226.837 111.64H232.117V104C232.117 100.773 230.544 99.16 227.397 99.16H220.997V95.8H227.597C230.184 95.8 232.171 96.44 233.557 97.72C234.944 99 235.637 100.84 235.637 103.24V115H226.717C224.451 115 222.651 114.493 221.317 113.48C219.984 112.467 219.317 110.987 219.317 109.04C219.317 107.093 220.024 105.613 221.437 104.6C222.851 103.587 224.624 103.08 226.757 103.08C227.957 103.08 229.237 103.293 230.597 103.72ZM242.634 115V104.08C242.634 101.013 243.208 98.8933 244.354 97.72C244.914 97.1333 245.594 96.6933 246.394 96.4C247.194 96.1067 247.888 95.9333 248.474 95.88C249.088 95.8267 249.914 95.8 250.954 95.8H254.474V99.16H250.234C249.701 99.16 249.288 99.1733 248.994 99.2C248.701 99.2267 248.354 99.32 247.954 99.48C247.554 99.64 247.208 99.8933 246.914 100.24C246.408 100.88 246.154 102.16 246.154 104.08V115H242.634ZM258.263 99.16L265.423 92V95.8H270.823V99.16H265.423V107.4C265.423 108.333 265.569 109.107 265.863 109.72C266.183 110.333 266.636 110.773 267.223 111.04C267.809 111.28 268.356 111.44 268.863 111.52C269.396 111.6 270.049 111.64 270.823 111.64V115C267.756 115 265.489 114.413 264.023 113.24C262.556 112.067 261.823 110.12 261.823 107.4V99.16H258.263ZM312.653 101.12C312.627 99.6267 312.4 98.2133 311.973 96.88C311.573 95.5467 310.973 94.3867 310.173 93.4C309.4 92.3867 308.453 91.5867 307.333 91C306.213 90.4133 304.947 90.12 303.533 90.12C302.12 90.12 300.853 90.4133 299.733 91C298.613 91.5867 297.653 92.3867 296.853 93.4C296.08 94.3867 295.48 95.5467 295.053 96.88C294.653 98.2133 294.44 99.6267 294.413 101.12C294.44 102.64 294.653 104.053 295.053 105.36C295.48 106.667 296.08 107.8 296.853 108.76C297.653 109.72 298.613 110.48 299.733 111.04C300.853 111.6 302.12 111.88 303.533 111.88C304.947 111.88 306.213 111.6 307.333 111.04C308.453 110.48 309.4 109.72 310.173 108.76C310.973 107.8 311.573 106.667 311.973 105.36C312.4 104.053 312.627 102.64 312.653 101.12ZM290.373 101.12C290.4 98.9067 290.733 96.9067 291.373 95.12C292.013 93.3333 292.907 91.8133 294.053 90.56C295.2 89.28 296.573 88.3067 298.173 87.64C299.773 86.9467 301.56 86.6 303.533 86.6C305.48 86.6 307.253 86.9467 308.853 87.64C310.48 88.3067 311.867 89.28 313.013 90.56C314.16 91.8133 315.053 93.3333 315.693 95.12C316.333 96.9067 316.667 98.9067 316.693 101.12C316.667 103.333 316.333 105.32 315.693 107.08C315.08 108.84 314.2 110.333 313.053 111.56C311.907 112.787 310.52 113.733 308.893 114.4C307.293 115.067 305.507 115.4 303.533 115.4C301.56 115.4 299.76 115.067 298.133 114.4C296.533 113.733 295.16 112.787 294.013 111.56C292.867 110.333 291.973 108.84 291.333 107.08C290.72 105.32 290.4 103.333 290.373 101.12ZM324.106 115V104.08C324.106 101.013 324.68 98.8933 325.826 97.72C326.386 97.1333 327.066 96.6933 327.866 96.4C328.666 96.1067 329.36 95.9333 329.946 95.88C330.56 95.8267 331.386 95.8 332.426 95.8H335.946V99.16H331.706C331.173 99.16 330.76 99.1733 330.466 99.2C330.173 99.2267 329.826 99.32 329.426 99.48C329.026 99.64 328.68 99.8933 328.386 100.24C327.88 100.88 327.626 102.16 327.626 104.08V115H324.106ZM356.734 87H360.334V115H350.934C348.028 115 345.668 114.08 343.854 112.24C342.041 110.373 341.134 108.027 341.134 105.2C341.134 102.427 342.068 100.107 343.934 98.24C345.828 96.3467 348.068 95.4 350.654 95.4C352.308 95.4 353.854 95.8 355.294 96.6V100.2C353.961 99.24 352.414 98.76 350.654 98.76C349.054 98.76 347.694 99.36 346.574 100.56C345.481 101.733 344.934 103.28 344.934 105.2C344.934 107.147 345.454 108.707 346.494 109.88C347.561 111.053 349.041 111.64 350.934 111.64H356.734V87ZM377.733 95.4C382.266 95.5867 384.533 97.4667 384.533 101.04C384.533 105.493 381.613 107.72 375.773 107.72H374.133V104.64H376.053C377.839 104.64 379.079 104.373 379.773 103.84C380.466 103.28 380.813 102.36 380.813 101.08C380.813 100.253 380.506 99.64 379.893 99.24C379.279 98.8133 378.493 98.6 377.533 98.6C375.639 98.6 374.146 99.2667 373.053 100.6C371.986 101.933 371.453 103.533 371.453 105.4C371.453 107.373 372.026 108.973 373.173 110.2C374.346 111.427 375.866 112.04 377.733 112.04C379.413 112.04 380.786 111.627 381.853 110.8L384.253 113.16C382.413 114.653 380.239 115.4 377.733 115.4C374.693 115.4 372.266 114.507 370.453 112.72C368.639 110.933 367.733 108.627 367.733 105.8C367.733 102.653 368.626 100.107 370.413 98.16C372.199 96.2133 374.639 95.2933 377.733 95.4ZM401.128 95.4C405.661 95.5867 407.928 97.4667 407.928 101.04C407.928 105.493 405.008 107.72 399.168 107.72H397.528V104.64H399.448C401.235 104.64 402.475 104.373 403.168 103.84C403.861 103.28 404.208 102.36 404.208 101.08C404.208 100.253 403.901 99.64 403.288 99.24C402.675 98.8133 401.888 98.6 400.928 98.6C399.035 98.6 397.541 99.2667 396.448 100.6C395.381 101.933 394.848 103.533 394.848 105.4C394.848 107.373 395.421 108.973 396.568 110.2C397.741 111.427 399.261 112.04 401.128 112.04C402.808 112.04 404.181 111.627 405.248 110.8L407.648 113.16C405.808 114.653 403.635 115.4 401.128 115.4C398.088 115.4 395.661 114.507 393.848 112.72C392.035 110.933 391.128 108.627 391.128 105.8C391.128 102.653 392.021 100.107 393.808 98.16C395.595 96.2133 398.035 95.2933 401.128 95.4Z" fill="url(#paint0_linear_228_293)"/>
<rect width="569" height="200" transform="translate(570 1)" fill="url(#paint1_linear_228_293)"/>
<path d="M746.92 87V90.52H739.84C737.147 90.52 735.8 91.6133 735.8 93.8C735.8 94.9733 736.387 95.9733 737.56 96.8C738.76 97.6 740.373 98.3733 742.4 99.12C743.307 99.4667 744.08 99.8267 744.72 100.2C745.36 100.547 746 101.013 746.64 101.6C747.28 102.187 747.76 102.947 748.08 103.88C748.4 104.787 748.56 105.84 748.56 107.04C748.56 108.373 748.28 109.573 747.72 110.64C747.16 111.68 746.44 112.507 745.56 113.12C744.68 113.707 743.773 114.16 742.84 114.48C741.933 114.773 741.04 114.933 740.16 114.96C739.787 114.987 739.253 115 738.56 115H732.32V111.48H738.44C740.253 111.48 741.733 111.107 742.88 110.36C744.027 109.587 744.6 108.467 744.6 107C744.6 106.28 744.44 105.653 744.12 105.12C743.8 104.56 743.333 104.08 742.72 103.68C742.133 103.28 741.52 102.933 740.88 102.64C740.267 102.347 739.52 102.04 738.64 101.72C738.4 101.64 738.213 101.573 738.08 101.52C733.893 99.92 731.8 97.3067 731.8 93.68C731.8 91.44 732.52 89.7733 733.96 88.68C735.4 87.56 737.28 87 739.6 87H746.92ZM755.956 95.8H773.596C775.49 95.8 776.996 96.16 778.116 96.88C779.263 97.6 780.01 98.5333 780.356 99.68C780.73 100.827 780.916 102.2 780.916 103.8V115H777.396V103.8C777.396 101.72 776.77 100.347 775.516 99.68C774.876 99.3333 773.583 99.16 771.636 99.16H769.996V115H766.476V99.16H759.476V115H755.956V95.8ZM799.597 103.72V107.32C798.584 106.547 797.344 106.16 795.877 106.16C794.624 106.16 793.651 106.413 792.957 106.92C792.264 107.4 791.917 108.093 791.917 109C791.917 110.76 793.224 111.64 795.837 111.64H801.117V104C801.117 100.773 799.544 99.16 796.397 99.16H789.997V95.8H796.597C799.184 95.8 801.171 96.44 802.557 97.72C803.944 99 804.637 100.84 804.637 103.24V115H795.717C793.451 115 791.651 114.493 790.317 113.48C788.984 112.467 788.317 110.987 788.317 109.04C788.317 107.093 789.024 105.613 790.437 104.6C791.851 103.587 793.624 103.08 795.757 103.08C796.957 103.08 798.237 103.293 799.597 103.72ZM811.634 115V104.08C811.634 101.013 812.208 98.8933 813.354 97.72C813.914 97.1333 814.594 96.6933 815.394 96.4C816.194 96.1067 816.888 95.9333 817.474 95.88C818.088 95.8267 818.914 95.8 819.954 95.8H823.474V99.16H819.234C818.701 99.16 818.288 99.1733 817.994 99.2C817.701 99.2267 817.354 99.32 816.954 99.48C816.554 99.64 816.208 99.8933 815.914 100.24C815.408 100.88 815.154 102.16 815.154 104.08V115H811.634ZM827.263 99.16L834.423 92V95.8H839.823V99.16H834.423V107.4C834.423 108.333 834.569 109.107 834.863 109.72C835.183 110.333 835.636 110.773 836.223 111.04C836.809 111.28 837.356 111.44 837.863 111.52C838.396 111.6 839.049 111.64 839.823 111.64V115C836.756 115 834.489 114.413 833.023 113.24C831.556 112.067 830.823 110.12 830.823 107.4V99.16H827.263ZM881.653 101.12C881.627 99.6267 881.4 98.2133 880.973 96.88C880.573 95.5467 879.973 94.3867 879.173 93.4C878.4 92.3867 877.453 91.5867 876.333 91C875.213 90.4133 873.947 90.12 872.533 90.12C871.12 90.12 869.853 90.4133 868.733 91C867.613 91.5867 866.653 92.3867 865.853 93.4C865.08 94.3867 864.48 95.5467 864.053 96.88C863.653 98.2133 863.44 99.6267 863.413 101.12C863.44 102.64 863.653 104.053 864.053 105.36C864.48 106.667 865.08 107.8 865.853 108.76C866.653 109.72 867.613 110.48 868.733 111.04C869.853 111.6 871.12 111.88 872.533 111.88C873.947 111.88 875.213 111.6 876.333 111.04C877.453 110.48 878.4 109.72 879.173 108.76C879.973 107.8 880.573 106.667 880.973 105.36C881.4 104.053 881.627 102.64 881.653 101.12ZM859.373 101.12C859.4 98.9067 859.733 96.9067 860.373 95.12C861.013 93.3333 861.907 91.8133 863.053 90.56C864.2 89.28 865.573 88.3067 867.173 87.64C868.773 86.9467 870.56 86.6 872.533 86.6C874.48 86.6 876.253 86.9467 877.853 87.64C879.48 88.3067 880.867 89.28 882.013 90.56C883.16 91.8133 884.053 93.3333 884.693 95.12C885.333 96.9067 885.667 98.9067 885.693 101.12C885.667 103.333 885.333 105.32 884.693 107.08C884.08 108.84 883.2 110.333 882.053 111.56C880.907 112.787 879.52 113.733 877.893 114.4C876.293 115.067 874.507 115.4 872.533 115.4C870.56 115.4 868.76 115.067 867.133 114.4C865.533 113.733 864.16 112.787 863.013 111.56C861.867 110.333 860.973 108.84 860.333 107.08C859.72 105.32 859.4 103.333 859.373 101.12ZM893.106 115V104.08C893.106 101.013 893.68 98.8933 894.826 97.72C895.386 97.1333 896.066 96.6933 896.866 96.4C897.666 96.1067 898.36 95.9333 898.946 95.88C899.56 95.8267 900.386 95.8 901.426 95.8H904.946V99.16H900.706C900.173 99.16 899.76 99.1733 899.466 99.2C899.173 99.2267 898.826 99.32 898.426 99.48C898.026 99.64 897.68 99.8933 897.386 100.24C896.88 100.88 896.626 102.16 896.626 104.08V115H893.106ZM925.734 87H929.334V115H919.934C917.028 115 914.668 114.08 912.854 112.24C911.041 110.373 910.134 108.027 910.134 105.2C910.134 102.427 911.068 100.107 912.934 98.24C914.828 96.3467 917.068 95.4 919.654 95.4C921.308 95.4 922.854 95.8 924.294 96.6V100.2C922.961 99.24 921.414 98.76 919.654 98.76C918.054 98.76 916.694 99.36 915.574 100.56C914.481 101.733 913.934 103.28 913.934 105.2C913.934 107.147 914.454 108.707 915.494 109.88C916.561 111.053 918.041 111.64 919.934 111.64H925.734V87ZM946.733 95.4C951.266 95.5867 953.533 97.4667 953.533 101.04C953.533 105.493 950.613 107.72 944.773 107.72H943.133V104.64H945.053C946.839 104.64 948.079 104.373 948.773 103.84C949.466 103.28 949.813 102.36 949.813 101.08C949.813 100.253 949.506 99.64 948.893 99.24C948.279 98.8133 947.493 98.6 946.533 98.6C944.639 98.6 943.146 99.2667 942.053 100.6C940.986 101.933 940.453 103.533 940.453 105.4C940.453 107.373 941.026 108.973 942.173 110.2C943.346 111.427 944.866 112.04 946.733 112.04C948.413 112.04 949.786 111.627 950.853 110.8L953.253 113.16C951.413 114.653 949.239 115.4 946.733 115.4C943.693 115.4 941.266 114.507 939.453 112.72C937.639 110.933 936.733 108.627 936.733 105.8C936.733 102.653 937.626 100.107 939.413 98.16C941.199 96.2133 943.639 95.2933 946.733 95.4ZM970.128 95.4C974.661 95.5867 976.928 97.4667 976.928 101.04C976.928 105.493 974.008 107.72 968.168 107.72H966.528V104.64H968.448C970.235 104.64 971.475 104.373 972.168 103.84C972.861 103.28 973.208 102.36 973.208 101.08C973.208 100.253 972.901 99.64 972.288 99.24C971.675 98.8133 970.888 98.6 969.928 98.6C968.035 98.6 966.541 99.2667 965.448 100.6C964.381 101.933 963.848 103.533 963.848 105.4C963.848 107.373 964.421 108.973 965.568 110.2C966.741 111.427 968.261 112.04 970.128 112.04C971.808 112.04 973.181 111.627 974.248 110.8L976.648 113.16C974.808 114.653 972.635 115.4 970.128 115.4C967.088 115.4 964.661 114.507 962.848 112.72C961.035 110.933 960.128 108.627 960.128 105.8C960.128 102.653 961.021 100.107 962.808 98.16C964.595 96.2133 967.035 95.2933 970.128 95.4Z" fill="white"/>
<defs>
<linearGradient id="paint0_linear_228_293" x1="161" y1="101" x2="410" y2="101" gradientUnits="userSpaceOnUse">
<stop stop-color="#A52A2A"/>
<stop offset="1" stop-color="#DC6343"/>
</linearGradient>
<linearGradient id="paint1_linear_228_293" x1="0" y1="100" x2="569" y2="100" gradientUnits="userSpaceOnUse">
<stop stop-color="#A52A2A"/>
<stop offset="1" stop-color="#DC6343"/>
</linearGradient>
</defs>
</svg>
